<svg width="63" height="13" viewBox="0 0 63 13" fill="none" xmlns="http://www.w3.org/2000/svg">
<path d="M1.46341 10.561V11.0488H0.97561V10.561H1.46341ZM1.46341 10.0732V10.561H0.97561V10.0732H1.46341ZM1.46341 9.58537V10.0732H0.97561V9.58537H1.46341ZM1.46341 9.09756V9.58537H0.97561V9.09756H1.46341ZM1.46341 8.60976V9.09756H0.97561V8.60976H1.46341ZM1.46341 8.12195V8.60976H0.97561V8.12195H1.46341ZM1.46341 7.63415V8.12195H0.97561V7.63415H1.46341ZM1.46341 7.14634V7.63415H0.97561V7.14634H1.46341ZM1.46341 6.65854V7.14634H0.97561V6.65854H1.46341ZM1.46341 6.17073V6.65854H0.97561V6.17073H1.46341ZM1.46341 5.68293V6.17073H0.97561V5.68293H1.46341ZM1.95122 5.68293V6.17073H1.46341V5.68293H1.95122ZM1.95122 6.17073V6.65854H1.46341V6.17073H1.95122ZM1.95122 6.65854V7.14634H1.46341V6.65854H1.95122ZM1.95122 7.14634V7.63415H1.46341V7.14634H1.95122ZM1.95122 7.63415V8.12195H1.46341V7.63415H1.95122ZM1.95122 8.12195V8.60976H1.46341V8.12195H1.95122ZM1.95122 8.60976V9.09756H1.46341V8.60976H1.95122ZM2.43902 9.09756V9.58537H1.95122V9.09756H2.43902ZM2.43902 9.58537V10.0732H1.95122V9.58537H2.43902ZM2.43902 10.0732V10.561H1.95122V10.0732H2.43902ZM2.43902 10.561V11.0488H1.95122V10.561H2.43902ZM2.43902 11.0488V11.5366H1.95122V11.0488H2.43902ZM2.43902 11.5366V12.0244H1.95122V11.5366H2.43902ZM2.43902 12.0244V12.5122H1.95122V12.0244H2.43902ZM3.41463 12.5122V13H2.92683V12.5122H3.41463ZM3.41463 12.0244V12.5122H2.92683V12.0244H3.41463ZM3.41463 11.5366V12.0244H2.92683V11.5366H3.41463ZM3.41463 11.0488V11.5366H2.92683V11.0488H3.41463ZM3.41463 10.561V11.0488H2.92683V10.561H3.41463ZM3.41463 10.0732V10.561H2.92683V10.0732H3.41463ZM3.41463 9.58537V10.0732H2.92683V9.58537H3.41463ZM3.41463 9.09756V9.58537H2.92683V9.09756H3.41463ZM2.92683 9.09756V9.58537H2.43902V9.09756H2.92683ZM2.92683 8.60976V9.09756H2.43902V8.60976H2.92683ZM2.92683 9.58537V10.0732H2.43902V9.58537H2.92683ZM2.92683 10.0732V10.561H2.43902V10.0732H2.92683ZM2.92683 10.561V11.0488H2.43902V10.561H2.92683ZM2.92683 11.0488V11.5366H2.43902V11.0488H2.92683ZM2.92683 11.5366V12.0244H2.43902V11.5366H2.92683ZM2.92683 12.0244V12.5122H2.43902V12.0244H2.92683ZM1.95122 11.5366V12.0244H1.46341V11.5366H1.95122ZM1.95122 11.0488V11.5366H1.46341V11.0488H1.95122ZM1.95122 10.561V11.0488H1.46341V10.561H1.95122ZM1.95122 10.0732V10.561H1.46341V10.0732H1.95122ZM1.95122 9.58537V10.0732H1.46341V9.58537H1.95122ZM1.95122 9.09756V9.58537H1.46341V9.09756H1.95122ZM1.46341 5.19512V5.68293H0.97561V5.19512H1.46341ZM2.92683 5.19512V5.68293H2.43902V5.19512H2.92683ZM2.92683 5.68293V6.17073H2.43902V5.68293H2.92683ZM2.92683 6.17073V6.65854H2.43902V6.17073H2.92683ZM2.92683 6.65854V7.14634H2.43902V6.65854H2.92683ZM2.92683 7.14634V7.63415H2.43902V7.14634H2.92683ZM3.41463 7.63415V8.12195H2.92683V7.63415H3.41463ZM3.41463 8.12195V8.60976H2.92683V8.12195H3.41463ZM3.41463 8.60976V9.09756H2.92683V8.60976H3.41463ZM3.41463 7.14634V7.63415H2.92683V7.14634H3.41463ZM3.41463 6.65854V7.14634H2.92683V6.65854H3.41463ZM3.41463 6.17073V6.65854H2.92683V6.17073H3.41463ZM3.41463 5.68293V6.17073H2.92683V5.68293H3.41463ZM3.41463 5.19512V5.68293H2.92683V5.19512H3.41463ZM1.95122 5.19512V5.68293H1.46341V5.19512H1.95122ZM2.43902 5.19512V5.68293H1.95122V5.19512H2.43902ZM2.43902 5.68293V6.17073H1.95122V5.68293H2.43902ZM2.43902 6.17073V6.65854H1.95122V6.17073H2.43902ZM2.43902 6.65854V7.14634H1.95122V6.65854H2.43902ZM2.43902 7.14634V7.63415H1.95122V7.14634H2.43902ZM2.43902 7.63415V8.12195H1.95122V7.63415H2.43902ZM2.43902 8.12195V8.60976H1.95122V8.12195H2.43902ZM2.43902 8.60976V9.09756H1.95122V8.60976H2.43902ZM2.92683 8.12195V8.60976H2.43902V8.12195H2.92683ZM2.92683 7.63415V8.12195H2.43902V7.63415H2.92683ZM7.31707 12.5122V13H6.82927V12.5122H7.31707ZM7.31707 12.0244V12.5122H6.82927V12.0244H7.31707ZM7.31707 11.5366V12.0244H6.82927V11.5366H7.31707ZM7.31707 11.0488V11.5366H6.82927V11.0488H7.31707ZM7.31707 10.561V11.0488H6.82927V10.561H7.31707ZM7.31707 10.0732V10.561H6.82927V10.0732H7.31707ZM7.31707 9.58537V10.0732H6.82927V9.58537H7.31707ZM8.29268 9.58537V10.0732H7.80488V9.58537H8.29268ZM8.29268 10.0732V10.561H7.80488V10.0732H8.29268ZM8.29268 10.561V11.0488H7.80488V10.561H8.29268ZM8.29268 11.0488V11.5366H7.80488V11.0488H8.29268ZM8.29268 11.5366V12.0244H7.80488V11.5366H8.29268ZM8.29268 12.0244V12.5122H7.80488V12.0244H8.29268ZM9.26829 10.561V11.0488H8.78049V10.561H9.26829ZM9.26829 10.0732V10.561H8.78049V10.0732H9.26829ZM9.26829 9.58537V10.0732H8.78049V9.58537H9.26829ZM8.78049 9.58537V10.0732H8.29268V9.58537H8.78049ZM8.78049 10.0732V10.561H8.29268V10.0732H8.78049ZM8.78049 10.561V11.0488H8.29268V10.561H8.78049ZM8.78049 11.0488V11.5366H8.29268V11.0488H8.78049ZM8.78049 11.5366V12.0244H8.29268V11.5366H8.78049ZM7.80488 12.0244V12.5122H7.31707V12.0244H7.80488ZM7.80488 11.5366V12.0244H7.31707V11.5366H7.80488ZM7.80488 11.0488V11.5366H7.31707V11.0488H7.80488ZM7.80488 10.561V11.0488H7.31707V10.561H7.80488ZM7.80488 10.0732V10.561H7.31707V10.0732H7.80488ZM7.80488 9.58537V10.0732H7.31707V9.58537H7.80488ZM3.90244 12.5122V13H3.41463V12.5122H3.90244ZM4.39024 12.5122V13H3.90244V12.5122H4.39024ZM4.87805 12.5122V13H4.39024V12.5122H4.87805ZM5.36585 12.5122V13H4.87805V12.5122H5.36585ZM5.85366 12.5122V13H5.36585V12.5122H5.85366ZM6.82927 12.5122V13H6.34146V12.5122H6.82927ZM6.82927 12.0244V12.5122H6.34146V12.0244H6.82927ZM5.85366 12.0244V12.5122H5.36585V12.0244H5.85366ZM5.36585 12.0244V12.5122H4.87805V12.0244H5.36585ZM4.87805 12.0244V12.5122H4.39024V12.0244H4.87805ZM4.39024 12.0244V12.5122H3.90244V12.0244H4.39024ZM3.90244 12.0244V12.5122H3.41463V12.0244H3.90244ZM3.90244 11.5366V12.0244H3.41463V11.5366H3.90244ZM4.39024 11.5366V12.0244H3.90244V11.5366H4.39024ZM4.87805 11.5366V12.0244H4.39024V11.5366H4.87805ZM5.36585 11.5366V12.0244H4.87805V11.5366H5.36585ZM5.85366 11.5366V12.0244H5.36585V11.5366H5.85366ZM6.82927 11.5366V12.0244H6.34146V11.5366H6.82927ZM6.82927 11.0488V11.5366H6.34146V11.0488H6.82927ZM5.85366 11.0488V11.5366H5.36585V11.0488H5.85366ZM5.36585 11.0488V11.5366H4.87805V11.0488H5.36585ZM4.87805 11.0488V11.5366H4.39024V11.0488H4.87805ZM4.39024 11.0488V11.5366H3.90244V11.0488H4.39024ZM3.90244 11.0488V11.5366H3.41463V11.0488H3.90244ZM3.90244 10.561V11.0488H3.41463V10.561H3.90244ZM6.82927 10.561V11.0488H6.34146V10.561H6.82927ZM8.78049 3.2439V2.7561H9.26829V3.2439H8.78049ZM8.78049 3.73171V3.2439H9.26829V3.73171H8.78049ZM8.78049 4.21951V3.73171H9.26829V4.21951H8.78049ZM7.80488 4.21951V3.73171H8.29268V4.21951H7.80488ZM7.80488 3.73171V3.2439H8.29268V3.73171H7.80488ZM7.80488 3.2439V2.7561H8.29268V3.2439H7.80488ZM7.80488 2.7561V2.26829H8.29268V2.7561H7.80488ZM7.80488 2.26829V1.78049H8.29268V2.26829H7.80488ZM7.80488 1.78049V1.29268H8.29268V1.78049H7.80488ZM6.82927 1.29268V0.804878H7.31707V1.29268H6.82927ZM6.82927 1.78049V1.29268H7.31707V1.78049H6.82927ZM6.82927 2.26829V1.78049H7.31707V2.26829H6.82927ZM6.82927 2.7561V2.26829H7.31707V2.7561H6.82927ZM6.82927 3.2439V2.7561H7.31707V3.2439H6.82927ZM6.82927 3.73171V3.2439H7.31707V3.73171H6.82927ZM6.82927 4.21951V3.73171H7.31707V4.21951H6.82927ZM7.31707 4.21951V3.73171H7.80488V4.21951H7.31707ZM7.31707 3.73171V3.2439H7.80488V3.73171H7.31707ZM7.31707 3.2439V2.7561H7.80488V3.2439H7.31707ZM7.31707 2.7561V2.26829H7.80488V2.7561H7.31707ZM7.31707 2.26829V1.78049H7.80488V2.26829H7.31707ZM7.31707 1.78049V1.29268H7.80488V1.78049H7.31707ZM8.29268 2.26829V1.78049H8.78049V2.26829H8.29268ZM8.29268 2.7561V2.26829H8.78049V2.7561H8.29268ZM8.29268 3.2439V2.7561H8.78049V3.2439H8.29268ZM8.29268 3.73171V3.2439H8.78049V3.73171H8.29268ZM8.29268 4.21951V3.73171H8.78049V4.21951H8.29268ZM2.92683 1.29268V0.804878H3.41463V1.29268H2.92683ZM2.92683 1.78049V1.29268H3.41463V1.78049H2.92683ZM2.92683 2.26829V1.78049H3.41463V2.26829H2.92683ZM2.92683 2.7561V2.26829H3.41463V2.7561H2.92683ZM2.92683 3.2439V2.7561H3.41463V3.2439H2.92683ZM2.92683 3.73171V3.2439H3.41463V3.73171H2.92683ZM2.92683 4.21951V3.73171H3.41463V4.21951H2.92683ZM1.95122 4.21951V3.73171H2.43902V4.21951H1.95122ZM1.95122 3.73171V3.2439H2.43902V3.73171H1.95122ZM1.95122 3.2439V2.7561H2.43902V3.2439H1.95122ZM1.95122 2.7561V2.26829H2.43902V2.7561H1.95122ZM1.95122 2.26829V1.78049H2.43902V2.26829H1.95122ZM1.95122 1.78049V1.29268H2.43902V1.78049H1.95122ZM0.97561 3.2439V2.7561H1.46341V3.2439H0.97561ZM0.97561 3.73171V3.2439H1.46341V3.73171H0.97561ZM0.97561 4.21951V3.73171H1.46341V4.21951H0.97561ZM1.46341 4.21951V3.73171H1.95122V4.21951H1.46341ZM1.46341 3.73171V3.2439H1.95122V3.73171H1.46341ZM1.46341 3.2439V2.7561H1.95122V3.2439H1.46341ZM1.46341 2.7561V2.26829H1.95122V2.7561H1.46341ZM1.46341 2.26829V1.78049H1.95122V2.26829H1.46341ZM2.43902 1.78049V1.29268H2.92683V1.78049H2.43902ZM2.43902 2.26829V1.78049H2.92683V2.26829H2.43902ZM2.43902 2.7561V2.26829H2.92683V2.7561H2.43902ZM2.43902 3.2439V2.7561H2.92683V3.2439H2.43902ZM2.43902 3.73171V3.2439H2.92683V3.73171H2.43902ZM2.43902 4.21951V3.73171H2.92683V4.21951H2.43902ZM6.34146 1.29268V0.804878H6.82927V1.29268H6.34146ZM5.36585 1.29268V0.804878H5.85366V1.29268H5.36585ZM4.87805 1.29268V0.804878H5.36585V1.29268H4.87805ZM4.39024 1.29268V0.804878H4.87805V1.29268H4.39024ZM3.90244 1.29268V0.804878H4.39024V1.29268H3.90244ZM3.41463 1.29268V0.804878H3.90244V1.29268H3.41463ZM3.41463 1.78049V1.29268H3.90244V1.78049H3.41463ZM3.90244 1.78049V1.29268H4.39024V1.78049H3.90244ZM4.39024 1.78049V1.29268H4.87805V1.78049H4.39024ZM4.87805 1.78049V1.29268H5.36585V1.78049H4.87805ZM5.36585 1.78049V1.29268H5.85366V1.78049H5.36585ZM6.34146 1.78049V1.29268H6.82927V1.78049H6.34146ZM6.34146 2.26829V1.78049H6.82927V2.26829H6.34146ZM5.36585 2.26829V1.78049H5.85366V2.26829H5.36585ZM4.87805 2.26829V1.78049H5.36585V2.26829H4.87805ZM4.39024 2.26829V1.78049H4.87805V2.26829H4.39024ZM3.90244 2.26829V1.78049H4.39024V2.26829H3.90244ZM3.41463 2.26829V1.78049H3.90244V2.26829H3.41463ZM3.41463 2.7561V2.26829H3.90244V2.7561H3.41463ZM3.90244 2.7561V2.26829H4.39024V2.7561H3.90244ZM4.39024 2.7561V2.26829H4.87805V2.7561H4.39024ZM4.87805 2.7561V2.26829H5.36585V2.7561H4.87805ZM5.36585 2.7561V2.26829H5.85366V2.7561H5.36585ZM6.34146 2.7561V2.26829H6.82927V2.7561H6.34146ZM6.34146 3.2439V2.7561H6.82927V3.2439H6.34146ZM3.41463 3.2439V2.7561H3.90244V3.2439H3.41463ZM1.46341 4.70732V5.19512H0.97561V4.70732H1.46341ZM1.95122 4.70732V5.19512H1.46341V4.70732H1.95122ZM1.46341 4.21951V4.70732H0.97561V4.21951H1.46341ZM2.92683 4.21951V4.70732H2.43902V4.21951H2.92683ZM2.92683 4.70732V5.19512H2.43902V4.70732H2.92683ZM3.41463 4.70732V5.19512H2.92683V4.70732H3.41463ZM3.41463 4.21951V4.70732H2.92683V4.21951H3.41463ZM1.95122 4.21951V4.70732H1.46341V4.21951H1.95122ZM2.43902 4.21951V4.70732H1.95122V4.21951H2.43902ZM2.43902 4.70732V5.19512H1.95122V4.70732H2.43902ZM4.39024 10.561V11.0488H3.90244V10.561H4.39024ZM4.87805 10.561V11.0488H4.39024V10.561H4.87805ZM5.36585 10.561V11.0488H4.87805V10.561H5.36585ZM5.85366 10.561V11.0488H5.36585V10.561H5.85366ZM6.82927 10.0732V10.561H6.34146V10.0732H6.82927ZM3.90244 10.0732V10.561H3.41463V10.0732H3.90244ZM7.31707 9.09756V9.58537H6.82927V9.09756H7.31707ZM7.80488 9.09756V9.58537H7.31707V9.09756H7.80488ZM8.29268 9.09756V9.58537H7.80488V9.09756H8.29268ZM8.78049 9.09756V9.58537H8.29268V9.09756H8.78049ZM9.26829 9.09756V9.58537H8.78049V9.09756H9.26829ZM3.90244 3.2439V3.73171H3.41463V3.2439H3.90244ZM4.39024 2.7561V3.2439H3.90244V2.7561H4.39024ZM4.87805 2.7561V3.2439H4.39024V2.7561H4.87805ZM5.36585 2.7561V3.2439H4.87805V2.7561H5.36585ZM5.85366 2.7561V3.2439H5.36585V2.7561H5.85366ZM6.82927 3.2439V3.73171H6.34146V3.2439H6.82927ZM7.31707 4.21951V4.70732H6.82927V4.21951H7.31707ZM7.80488 4.21951V4.70732H7.31707V4.21951H7.80488ZM8.29268 4.21951V4.70732H7.80488V4.21951H8.29268ZM8.78049 4.21951V4.70732H8.29268V4.21951H8.78049ZM9.26829 4.21951V4.70732H8.78049V4.21951H9.26829ZM6.34146 0.804878V1.29268H5.85366V0.804878H6.34146ZM6.34146 1.29268V1.78049H5.85366V1.29268H6.34146ZM6.34146 1.78049V2.26829H5.85366V1.78049H6.34146ZM6.34146 2.26829V2.7561H5.85366V2.26829H6.34146ZM6.34146 2.7561V3.2439H5.85366V2.7561H6.34146ZM6.34146 10.561V11.0488H5.85366V10.561H6.34146ZM6.34146 11.0488V11.5366H5.85366V11.0488H6.34146ZM6.34146 11.5366V12.0244H5.85366V11.5366H6.34146ZM6.34146 12.0244V12.5122H5.85366V12.0244H6.34146ZM6.34146 12.5122V13H5.85366V12.5122H6.34146ZM16.5758 6.65854V7.14634H16.088V6.65854H16.5758ZM17.0636 6.65854V7.14634H16.5758V6.65854H17.0636ZM17.5514 6.65854V7.14634H17.0636V6.65854H17.5514ZM18.0393 6.65854V7.14634H17.5514V6.65854H18.0393ZM18.5271 6.65854V7.14634H18.0393V6.65854H18.5271ZM18.5271 6.17073V6.65854H18.0393V6.17073H18.5271ZM18.5271 5.68293V6.17073H18.0393V5.68293H18.5271ZM18.0393 5.68293V6.17073H17.5514V5.68293H18.0393ZM17.5514 5.68293V6.17073H17.0636V5.68293H17.5514ZM17.0636 5.68293V6.17073H16.5758V5.68293H17.0636ZM17.0636 6.17073V6.65854H16.5758V6.17073H17.0636ZM16.5758 6.17073V6.65854H16.088V6.17073H16.5758ZM17.5514 6.17073V6.65854H17.0636V6.17073H17.5514ZM18.0393 6.17073V6.65854H17.5514V6.17073H18.0393ZM16.5758 5.68293V6.17073H16.088V5.68293H16.5758ZM16.088 5.68293V6.17073H15.6002V5.68293H16.088ZM16.088 5.19512V5.68293H15.6002V5.19512H16.088ZM16.5758 5.19512V5.68293H16.088V5.19512H16.5758ZM17.0636 5.19512V5.68293H16.5758V5.19512H17.0636ZM17.5514 5.19512V5.68293H17.0636V5.19512H17.5514ZM18.0393 5.19512V5.68293H17.5514V5.19512H18.0393ZM18.0393 4.70732V5.19512H17.5514V4.70732H18.0393ZM17.5514 4.70732V5.19512H17.0636V4.70732H17.5514ZM17.0636 4.70732V5.19512H16.5758V4.70732H17.0636ZM16.5758 4.70732V5.19512H16.088V4.70732H16.5758ZM16.088 4.70732V5.19512H15.6002V4.70732H16.088ZM17.0636 4.21951V4.70732H16.5758V4.21951H17.0636ZM17.5514 4.21951V4.70732H17.0636V4.21951H17.5514ZM16.5758 4.21951V4.70732H16.088V4.21951H16.5758ZM16.5758 3.73171V4.21951H16.088V3.73171H16.5758ZM16.088 3.73171V4.21951H15.6002V3.73171H16.088ZM16.088 4.21951V4.70732H15.6002V4.21951H16.088ZM15.6002 4.21951V4.70732H15.1124V4.21951H15.6002ZM15.6002 3.73171V4.21951H15.1124V3.73171H15.6002ZM15.6002 4.70732V5.19512H15.1124V4.70732H15.6002ZM15.1124 4.70732V5.19512H14.6246V4.70732H15.1124ZM15.1124 5.19512V5.68293H14.6246V5.19512H15.1124ZM15.6002 5.19512V5.68293H15.1124V5.19512H15.6002ZM14.6246 5.19512V5.68293H14.1368V5.19512H14.6246ZM14.6246 4.70732V5.19512H14.1368V4.70732H14.6246ZM14.6246 4.21951V4.70732H14.1368V4.21951H14.6246ZM14.6246 3.73171V4.21951H14.1368V3.73171H14.6246ZM15.1124 3.73171V4.21951H14.6246V3.73171H15.1124ZM15.1124 4.21951V4.70732H14.6246V4.21951H15.1124ZM14.1368 3.73171V4.21951H13.649V3.73171H14.1368ZM13.649 3.73171V4.21951H13.1612V3.73171H13.649ZM13.1612 3.73171V4.21951H12.6734V3.73171H13.1612ZM13.1612 4.21951V4.70732H12.6734V4.21951H13.1612ZM13.1612 4.70732V5.19512H12.6734V4.70732H13.1612ZM13.1612 5.19512V5.68293H12.6734V5.19512H13.1612ZM13.649 5.19512V5.68293H13.1612V5.19512H13.649ZM14.1368 5.19512V5.68293H13.649V5.19512H14.1368ZM14.1368 4.70732V5.19512H13.649V4.70732H14.1368ZM14.1368 4.21951V4.70732H13.649V4.21951H14.1368ZM13.649 4.21951V4.70732H13.1612V4.21951H13.649ZM13.649 4.70732V5.19512H13.1612V4.70732H13.649ZM12.6734 4.70732V5.19512H12.1856V4.70732H12.6734ZM12.6734 4.21951V4.70732H12.1856V4.21951H12.6734ZM12.1856 4.21951V4.70732H11.6978V4.21951H12.1856ZM12.1856 4.70732V5.19512H11.6978V4.70732H12.1856ZM11.6978 4.70732V5.19512H11.21V4.70732H11.6978ZM11.6978 5.19512V5.68293H11.21V5.19512H11.6978ZM11.6978 5.68293V6.17073H11.21V5.68293H11.6978ZM12.1856 5.68293V6.17073H11.6978V5.68293H12.1856ZM12.1856 5.19512V5.68293H11.6978V5.19512H12.1856ZM12.6734 5.19512V5.68293H12.1856V5.19512H12.6734ZM12.6734 5.68293V6.17073H12.1856V5.68293H12.6734ZM13.1612 5.68293V6.17073H12.6734V5.68293H13.1612ZM13.649 5.68293V6.17073H13.1612V5.68293H13.649ZM11.21 5.68293V6.17073H10.7222V5.68293H11.21ZM11.21 6.17073V6.65854H10.7222V6.17073H11.21ZM11.21 6.65854V7.14634H10.7222V6.65854H11.21ZM11.21 7.14634V7.63415H10.7222V7.14634H11.21ZM11.21 7.63415V8.12195H10.7222V7.63415H11.21ZM11.21 8.12195V8.60976H10.7222V8.12195H11.21ZM11.21 8.60976V9.09756H10.7222V8.60976H11.21ZM11.21 9.09756V9.58537H10.7222V9.09756H11.21ZM11.21 9.58537V10.0732H10.7222V9.58537H11.21ZM11.21 10.0732V10.561H10.7222V10.0732H11.21ZM11.6978 10.0732V10.561H11.21V10.0732H11.6978ZM11.6978 10.561V11.0488H11.21V10.561H11.6978ZM11.21 10.561V11.0488H10.7222V10.561H11.21ZM12.1856 10.561V11.0488H11.6978V10.561H12.1856ZM12.6734 10.561V11.0488H12.1856V10.561H12.6734ZM13.1612 10.561V11.0488H12.6734V10.561H13.1612ZM13.649 10.561V11.0488H13.1612V10.561H13.649ZM13.1612 10.0732V10.561H12.6734V10.0732H13.1612ZM13.1612 9.58537V10.0732H12.6734V9.58537H13.1612ZM13.1612 9.09756V9.58537H12.6734V9.09756H13.1612ZM13.1612 8.60976V9.09756H12.6734V8.60976H13.1612ZM13.1612 8.12195V8.60976H12.6734V8.12195H13.1612ZM13.1612 7.63415V8.12195H12.6734V7.63415H13.1612ZM13.1612 7.14634V7.63415H12.6734V7.14634H13.1612ZM13.1612 6.65854V7.14634H12.6734V6.65854H13.1612ZM13.1612 6.17073V6.65854H12.6734V6.17073H13.1612ZM12.6734 6.17073V6.65854H12.1856V6.17073H12.6734ZM12.1856 6.17073V6.65854H11.6978V6.17073H12.1856ZM11.6978 6.17073V6.65854H11.21V6.17073H11.6978ZM11.6978 6.65854V7.14634H11.21V6.65854H11.6978ZM11.6978 7.14634V7.63415H11.21V7.14634H11.6978ZM11.6978 7.63415V8.12195H11.21V7.63415H11.6978ZM11.6978 8.12195V8.60976H11.21V8.12195H11.6978ZM11.6978 8.60976V9.09756H11.21V8.60976H11.6978ZM11.6978 9.09756V9.58537H11.21V9.09756H11.6978ZM11.6978 9.58537V10.0732H11.21V9.58537H11.6978ZM12.1856 10.0732V10.561H11.6978V10.0732H12.1856ZM12.6734 10.0732V10.561H12.1856V10.0732H12.6734ZM12.6734 9.58537V10.0732H12.1856V9.58537H12.6734ZM12.6734 9.09756V9.58537H12.1856V9.09756H12.6734ZM12.6734 8.60976V9.09756H12.1856V8.60976H12.6734ZM12.6734 8.12195V8.60976H12.1856V8.12195H12.6734ZM12.1856 8.12195V8.60976H11.6978V8.12195H12.1856ZM12.1856 7.63415V8.12195H11.6978V7.63415H12.1856ZM12.1856 7.14634V7.63415H11.6978V7.14634H12.1856ZM12.1856 6.65854V7.14634H11.6978V6.65854H12.1856ZM12.6734 6.65854V7.14634H12.1856V6.65854H12.6734ZM12.6734 7.14634V7.63415H12.1856V7.14634H12.6734ZM12.6734 7.63415V8.12195H12.1856V7.63415H12.6734ZM12.1856 9.09756V9.58537H11.6978V9.09756H12.1856ZM12.1856 9.58537V10.0732H11.6978V9.58537H12.1856ZM12.1856 8.60976V9.09756H11.6978V8.60976H12.1856ZM16.5758 9.58537V10.0732H16.088V9.58537H16.5758ZM16.5758 10.0732V10.561H16.088V10.0732H16.5758ZM17.0636 10.0732V10.561H16.5758V10.0732H17.0636ZM17.5514 10.0732V10.561H17.0636V10.0732H17.5514ZM18.0393 10.0732V10.561H17.5514V10.0732H18.0393ZM18.5271 10.0732V10.561H18.0393V10.0732H18.5271ZM18.5271 9.58537V10.0732H18.0393V9.58537H18.5271ZM18.0393 9.58537V10.0732H17.5514V9.58537H18.0393ZM17.5514 9.58537V10.0732H17.0636V9.58537H17.5514ZM17.0636 9.58537V10.0732H16.5758V9.58537H17.0636ZM18.5271 10.561V11.0488H18.0393V10.561H18.5271ZM18.0393 10.561V11.0488H17.5514V10.561H18.0393ZM17.5514 10.561V11.0488H17.0636V10.561H17.5514ZM17.0636 10.561V11.0488H16.5758V10.561H17.0636ZM16.5758 10.561V11.0488H16.088V10.561H16.5758ZM16.088 10.561V11.0488H15.6002V10.561H16.088ZM16.088 11.0488V11.5366H15.6002V11.0488H16.088ZM16.5758 11.0488V11.5366H16.088V11.0488H16.5758ZM17.0636 11.0488V11.5366H16.5758V11.0488H17.0636ZM17.5514 11.0488V11.5366H17.0636V11.0488H17.5514ZM17.5514 11.5366V12.0244H17.0636V11.5366H17.5514ZM18.0393 11.5366V12.0244H17.5514V11.5366H18.0393ZM18.0393 11.0488V11.5366H17.5514V11.0488H18.0393ZM17.5514 12.0244V12.5122H17.0636V12.0244H17.5514ZM17.0636 12.0244V12.5122H16.5758V12.0244H17.0636ZM17.0636 11.5366V12.0244H16.5758V11.5366H17.0636ZM16.5758 11.5366V12.0244H16.088V11.5366H16.5758ZM16.5758 12.0244V12.5122H16.088V12.0244H16.5758ZM16.5758 12.5122V13H16.088V12.5122H16.5758ZM16.088 12.5122V13H15.6002V12.5122H16.088ZM15.6002 12.5122V13H15.1124V12.5122H15.6002ZM15.1124 12.5122V13H14.6246V12.5122H15.1124ZM14.6246 12.5122V13H14.1368V12.5122H14.6246ZM14.1368 12.5122V13H13.649V12.5122H14.1368ZM13.649 12.5122V13H13.1612V12.5122H13.649ZM13.1612 12.5122V13H12.6734V12.5122H13.1612ZM13.649 12.0244V12.5122H13.1612V12.0244H13.649ZM14.1368 12.0244V12.5122H13.649V12.0244H14.1368ZM14.6246 12.0244V12.5122H14.1368V12.0244H14.6246ZM15.1124 12.0244V12.5122H14.6246V12.0244H15.1124ZM15.6002 12.0244V12.5122H15.1124V12.0244H15.6002ZM16.088 12.0244V12.5122H15.6002V12.0244H16.088ZM16.088 11.5366V12.0244H15.6002V11.5366H16.088ZM15.6002 11.5366V12.0244H15.1124V11.5366H15.6002ZM15.1124 11.5366V12.0244H14.6246V11.5366H15.1124ZM14.6246 11.5366V12.0244H14.1368V11.5366H14.6246ZM14.1368 11.5366V12.0244H13.649V11.5366H14.1368ZM13.649 11.5366V12.0244H13.1612V11.5366H13.649ZM13.1612 12.0244V12.5122H12.6734V12.0244H13.1612ZM12.6734 12.0244V12.5122H12.1856V12.0244H12.6734ZM12.1856 12.0244V12.5122H11.6978V12.0244H12.1856ZM12.1856 11.5366V12.0244H11.6978V11.5366H12.1856ZM11.6978 11.5366V12.0244H11.21V11.5366H11.6978ZM11.6978 11.0488V11.5366H11.21V11.0488H11.6978ZM12.1856 11.0488V11.5366H11.6978V11.0488H12.1856ZM12.6734 11.0488V11.5366H12.1856V11.0488H12.6734ZM13.1612 11.0488V11.5366H12.6734V11.0488H13.1612ZM13.649 11.0488V11.5366H13.1612V11.0488H13.649ZM14.1368 11.0488V11.5366H13.649V11.0488H14.1368ZM14.6246 11.0488V11.5366H14.1368V11.0488H14.6246ZM15.1124 11.0488V11.5366H14.6246V11.0488H15.1124ZM15.6002 11.0488V11.5366H15.1124V11.0488H15.6002ZM13.1612 11.5366V12.0244H12.6734V11.5366H13.1612ZM12.6734 11.5366V12.0244H12.1856V11.5366H12.6734ZM16.5758 7.14634V7.63415H16.088V7.14634H16.5758ZM16.5758 7.63415V8.12195H16.088V7.63415H16.5758ZM17.0636 7.63415V8.12195H16.5758V7.63415H17.0636ZM17.5514 7.63415V8.12195H17.0636V7.63415H17.5514ZM18.0393 7.63415V8.12195H17.5514V7.63415H18.0393ZM18.5271 7.63415V8.12195H18.0393V7.63415H18.5271ZM18.5271 7.14634V7.63415H18.0393V7.14634H18.5271ZM18.0393 7.14634V7.63415H17.5514V7.14634H18.0393ZM17.5514 7.14634V7.63415H17.0636V7.14634H17.5514ZM17.0636 7.14634V7.63415H16.5758V7.14634H17.0636ZM17.0636 8.12195V8.60976H16.5758V8.12195H17.0636ZM17.5514 8.12195V8.60976H17.0636V8.12195H17.5514ZM17.5514 8.60976V9.09756H17.0636V8.60976H17.5514ZM18.0393 8.60976V9.09756H17.5514V8.60976H18.0393ZM18.0393 8.12195V8.60976H17.5514V8.12195H18.0393ZM18.5271 8.12195V8.60976H18.0393V8.12195H18.5271ZM18.5271 8.60976V9.09756H18.0393V8.60976H18.5271ZM18.5271 9.09756V9.58537H18.0393V9.09756H18.5271ZM18.0393 9.09756V9.58537H17.5514V9.09756H18.0393ZM17.5514 9.09756V9.58537H17.0636V9.09756H17.5514ZM17.0636 9.09756V9.58537H16.5758V9.09756H17.0636ZM17.0636 8.60976V9.09756H16.5758V8.60976H17.0636ZM16.5758 8.60976V9.09756H16.088V8.60976H16.5758ZM16.5758 8.12195V8.60976H16.088V8.12195H16.5758ZM16.5758 9.09756V9.58537H16.088V9.09756H16.5758ZM20.4869 12.5122V13H19.999V12.5122H20.4869ZM20.4869 12.0244V12.5122H19.999V12.0244H20.4869ZM20.4869 11.5366V12.0244H19.999V11.5366H20.4869ZM20.4869 11.0488V11.5366H19.999V11.0488H20.4869ZM20.4869 10.561V11.0488H19.999V10.561H20.4869ZM20.4869 10.0732V10.561H19.999V10.0732H20.4869ZM20.4869 9.58537V10.0732H19.999V9.58537H20.4869ZM20.4869 9.09756V9.58537H19.999V9.09756H20.4869ZM20.4869 8.60976V9.09756H19.999V8.60976H20.4869ZM20.4869 8.12195V8.60976H19.999V8.12195H20.4869ZM20.4869 7.63415V8.12195H19.999V7.63415H20.4869ZM20.4869 7.14634V7.63415H19.999V7.14634H20.4869ZM20.4869 6.65854V7.14634H19.999V6.65854H20.4869ZM20.4869 6.17073V6.65854H19.999V6.17073H20.4869ZM20.4869 5.68293V6.17073H19.999V5.68293H20.4869ZM20.9747 5.68293V6.17073H20.4869V5.68293H20.9747ZM20.9747 6.17073V6.65854H20.4869V6.17073H20.9747ZM20.9747 6.65854V7.14634H20.4869V6.65854H20.9747ZM20.9747 7.14634V7.63415H20.4869V7.14634H20.9747ZM20.9747 7.63415V8.12195H20.4869V7.63415H20.9747ZM20.9747 8.12195V8.60976H20.4869V8.12195H20.9747ZM20.9747 8.60976V9.09756H20.4869V8.60976H20.9747ZM21.4625 9.09756V9.58537H20.9747V9.09756H21.4625ZM21.4625 9.58537V10.0732H20.9747V9.58537H21.4625ZM21.4625 10.0732V10.561H20.9747V10.0732H21.4625ZM21.4625 10.561V11.0488H20.9747V10.561H21.4625ZM21.4625 11.0488V11.5366H20.9747V11.0488H21.4625ZM21.4625 11.5366V12.0244H20.9747V11.5366H21.4625ZM21.4625 12.0244V12.5122H20.9747V12.0244H21.4625ZM21.4625 12.5122V13H20.9747V12.5122H21.4625ZM21.9503 12.5122V13H21.4625V12.5122H21.9503ZM22.4381 12.5122V13H21.9503V12.5122H22.4381ZM22.4381 12.0244V12.5122H21.9503V12.0244H22.4381ZM22.4381 11.5366V12.0244H21.9503V11.5366H22.4381ZM22.4381 11.0488V11.5366H21.9503V11.0488H22.4381ZM22.4381 10.561V11.0488H21.9503V10.561H22.4381ZM22.4381 10.0732V10.561H21.9503V10.0732H22.4381ZM22.4381 9.58537V10.0732H21.9503V9.58537H22.4381ZM22.4381 9.09756V9.58537H21.9503V9.09756H22.4381ZM21.9503 9.09756V9.58537H21.4625V9.09756H21.9503ZM21.9503 8.60976V9.09756H21.4625V8.60976H21.9503ZM21.9503 9.58537V10.0732H21.4625V9.58537H21.9503ZM21.9503 10.0732V10.561H21.4625V10.0732H21.9503ZM21.9503 10.561V11.0488H21.4625V10.561H21.9503ZM21.9503 11.0488V11.5366H21.4625V11.0488H21.9503ZM21.9503 11.5366V12.0244H21.4625V11.5366H21.9503ZM21.9503 12.0244V12.5122H21.4625V12.0244H21.9503ZM20.9747 12.5122V13H20.4869V12.5122H20.9747ZM20.9747 12.0244V12.5122H20.4869V12.0244H20.9747ZM20.9747 11.5366V12.0244H20.4869V11.5366H20.9747ZM20.9747 11.0488V11.5366H20.4869V11.0488H20.9747ZM20.9747 10.561V11.0488H20.4869V10.561H20.9747ZM20.9747 10.0732V10.561H20.4869V10.0732H20.9747ZM20.9747 9.58537V10.0732H20.4869V9.58537H20.9747ZM20.9747 9.09756V9.58537H20.4869V9.09756H20.9747ZM20.4869 0.804878V1.29268H19.999V0.804878H20.4869ZM20.4869 1.29268V1.78049H19.999V1.29268H20.4869ZM20.4869 1.78049V2.26829H19.999V1.78049H20.4869ZM20.4869 2.26829V2.7561H19.999V2.26829H20.4869ZM20.4869 2.7561V3.2439H19.999V2.7561H20.4869ZM20.4869 3.2439V3.73171H19.999V3.2439H20.4869ZM20.4869 3.73171V4.21951H19.999V3.73171H20.4869ZM20.4869 4.21951V4.70732H19.999V4.21951H20.4869ZM20.4869 4.70732V5.19512H19.999V4.70732H20.4869ZM20.4869 5.19512V5.68293H19.999V5.19512H20.4869ZM21.9503 0.804878V1.29268H21.4625V0.804878H21.9503ZM21.9503 1.29268V1.78049H21.4625V1.29268H21.9503ZM21.9503 1.78049V2.26829H21.4625V1.78049H21.9503ZM21.9503 2.26829V2.7561H21.4625V2.26829H21.9503ZM21.9503 2.7561V3.2439H21.4625V2.7561H21.9503ZM21.9503 3.2439V3.73171H21.4625V3.2439H21.9503ZM21.9503 4.21951V4.70732H21.4625V4.21951H21.9503ZM21.9503 4.70732V5.19512H21.4625V4.70732H21.9503ZM21.9503 5.19512V5.68293H21.4625V5.19512H21.9503ZM21.9503 5.68293V6.17073H21.4625V5.68293H21.9503ZM21.9503 6.17073V6.65854H21.4625V6.17073H21.9503ZM21.9503 6.65854V7.14634H21.4625V6.65854H21.9503ZM21.9503 7.14634V7.63415H21.4625V7.14634H21.9503ZM22.4381 7.63415V8.12195H21.9503V7.63415H22.4381ZM22.4381 8.12195V8.60976H21.9503V8.12195H22.4381ZM22.4381 8.60976V9.09756H21.9503V8.60976H22.4381ZM22.4381 7.14634V7.63415H21.9503V7.14634H22.4381ZM22.4381 6.65854V7.14634H21.9503V6.65854H22.4381ZM22.4381 6.17073V6.65854H21.9503V6.17073H22.4381ZM22.4381 5.68293V6.17073H21.9503V5.68293H22.4381ZM22.4381 5.19512V5.68293H21.9503V5.19512H22.4381ZM22.4381 4.70732V5.19512H21.9503V4.70732H22.4381ZM22.4381 4.21951V4.70732H21.9503V4.21951H22.4381ZM22.4381 3.73171V4.21951H21.9503V3.73171H22.4381ZM22.4381 3.2439V3.73171H21.9503V3.2439H22.4381ZM22.4381 2.7561V3.2439H21.9503V2.7561H22.4381ZM21.9503 3.73171V4.21951H21.4625V3.73171H21.9503ZM22.4381 2.26829V2.7561H21.9503V2.26829H22.4381ZM22.4381 1.78049V2.26829H21.9503V1.78049H22.4381ZM22.4381 1.29268V1.78049H21.9503V1.29268H22.4381ZM22.4381 0.804878V1.29268H21.9503V0.804878H22.4381ZM21.4625 0.804878V1.29268H20.9747V0.804878H21.4625ZM20.9747 0.804878V1.29268H20.4869V0.804878H20.9747ZM20.9747 1.29268V1.78049H20.4869V1.29268H20.9747ZM21.4625 1.29268V1.78049H20.9747V1.29268H21.4625ZM21.4625 1.78049V2.26829H20.9747V1.78049H21.4625ZM21.4625 2.26829V2.7561H20.9747V2.26829H21.4625ZM21.4625 2.7561V3.2439H20.9747V2.7561H21.4625ZM21.4625 3.2439V3.73171H20.9747V3.2439H21.4625ZM21.4625 3.73171V4.21951H20.9747V3.73171H21.4625ZM21.4625 4.21951V4.70732H20.9747V4.21951H21.4625ZM20.9747 4.70732V5.19512H20.4869V4.70732H20.9747ZM20.9747 5.19512V5.68293H20.4869V5.19512H20.9747ZM20.9747 4.21951V4.70732H20.4869V4.21951H20.9747ZM20.9747 3.73171V4.21951H20.4869V3.73171H20.9747ZM20.9747 3.2439V3.73171H20.4869V3.2439H20.9747ZM20.9747 2.7561V3.2439H20.4869V2.7561H20.9747ZM20.9747 2.26829V2.7561H20.4869V2.26829H20.9747ZM20.9747 1.78049V2.26829H20.4869V1.78049H20.9747ZM21.4625 4.70732V5.19512H20.9747V4.70732H21.4625ZM21.4625 5.19512V5.68293H20.9747V5.19512H21.4625ZM21.4625 5.68293V6.17073H20.9747V5.68293H21.4625ZM21.4625 6.17073V6.65854H20.9747V6.17073H21.4625ZM21.4625 6.65854V7.14634H20.9747V6.65854H21.4625ZM21.4625 7.14634V7.63415H20.9747V7.14634H21.4625ZM21.4625 7.63415V8.12195H20.9747V7.63415H21.4625ZM21.4625 8.12195V8.60976H20.9747V8.12195H21.4625ZM21.4625 8.60976V9.09756H20.9747V8.60976H21.4625ZM21.9503 8.12195V8.60976H21.4625V8.12195H21.9503ZM21.9503 7.63415V8.12195H21.4625V7.63415H21.9503ZM29.2716 5.19512V5.68293H28.7838V5.19512H29.2716ZM29.2716 4.70732V5.19512H28.7838V4.70732H29.2716ZM29.2716 4.21951V4.70732H28.7838V4.21951H29.2716ZM28.7838 4.21951V4.70732H28.296V4.21951H28.7838ZM28.7838 3.73171V4.21951H28.296V3.73171H28.7838ZM28.7838 4.70732V5.19512H28.296V4.70732H28.7838ZM28.296 4.70732V5.19512H27.8082V4.70732H28.296ZM28.296 5.19512V5.68293H27.8082V5.19512H28.296ZM28.7838 5.19512V5.68293H28.296V5.19512H28.7838ZM27.8082 5.19512V5.68293H27.3204V5.19512H27.8082ZM27.8082 4.70732V5.19512H27.3204V4.70732H27.8082ZM27.8082 4.21951V4.70732H27.3204V4.21951H27.8082ZM27.8082 3.73171V4.21951H27.3204V3.73171H27.8082ZM28.296 3.73171V4.21951H27.8082V3.73171H28.296ZM28.296 4.21951V4.70732H27.8082V4.21951H28.296ZM27.3204 3.73171V4.21951H26.8326V3.73171H27.3204ZM26.8326 3.73171V4.21951H26.3448V3.73171H26.8326ZM26.3448 3.73171V4.21951H25.857V3.73171H26.3448ZM26.3448 4.21951V4.70732H25.857V4.21951H26.3448ZM26.3448 4.70732V5.19512H25.857V4.70732H26.3448ZM26.3448 5.19512V5.68293H25.857V5.19512H26.3448ZM26.8326 5.19512V5.68293H26.3448V5.19512H26.8326ZM27.3204 5.19512V5.68293H26.8326V5.19512H27.3204ZM27.3204 4.70732V5.19512H26.8326V4.70732H27.3204ZM27.3204 4.21951V4.70732H26.8326V4.21951H27.3204ZM26.8326 4.21951V4.70732H26.3448V4.21951H26.8326ZM26.8326 4.70732V5.19512H26.3448V4.70732H26.8326ZM25.857 4.70732V5.19512H25.3692V4.70732H25.857ZM25.857 4.21951V4.70732H25.3692V4.21951H25.857ZM25.3692 4.21951V4.70732H24.8814V4.21951H25.3692ZM25.3692 4.70732V5.19512H24.8814V4.70732H25.3692ZM24.8814 4.70732V5.19512H24.3936V4.70732H24.8814ZM24.8814 5.19512V5.68293H24.3936V5.19512H24.8814ZM24.8814 5.68293V6.17073H24.3936V5.68293H24.8814ZM25.3692 5.68293V6.17073H24.8814V5.68293H25.3692ZM25.3692 5.19512V5.68293H24.8814V5.19512H25.3692ZM25.857 5.19512V5.68293H25.3692V5.19512H25.857ZM25.857 5.68293V6.17073H25.3692V5.68293H25.857ZM26.3448 5.68293V6.17073H25.857V5.68293H26.3448ZM26.8326 5.68293V6.17073H26.3448V5.68293H26.8326ZM24.3936 5.68293V6.17073H23.9058V5.68293H24.3936ZM24.3936 6.17073V6.65854H23.9058V6.17073H24.3936ZM24.3936 6.65854V7.14634H23.9058V6.65854H24.3936ZM24.3936 7.14634V7.63415H23.9058V7.14634H24.3936ZM24.3936 7.63415V8.12195H23.9058V7.63415H24.3936ZM24.3936 8.12195V8.60976H23.9058V8.12195H24.3936ZM24.3936 8.60976V9.09756H23.9058V8.60976H24.3936ZM24.3936 9.09756V9.58537H23.9058V9.09756H24.3936ZM24.3936 9.58537V10.0732H23.9058V9.58537H24.3936ZM24.3936 10.0732V10.561H23.9058V10.0732H24.3936ZM24.8814 10.0732V10.561H24.3936V10.0732H24.8814ZM24.8814 10.561V11.0488H24.3936V10.561H24.8814ZM24.3936 10.561V11.0488H23.9058V10.561H24.3936ZM25.3692 10.561V11.0488H24.8814V10.561H25.3692ZM25.857 10.561V11.0488H25.3692V10.561H25.857ZM26.3448 10.561V11.0488H25.857V10.561H26.3448ZM26.8326 10.561V11.0488H26.3448V10.561H26.8326ZM26.3448 10.0732V10.561H25.857V10.0732H26.3448ZM26.3448 9.58537V10.0732H25.857V9.58537H26.3448ZM26.3448 9.09756V9.58537H25.857V9.09756H26.3448ZM26.3448 8.60976V9.09756H25.857V8.60976H26.3448ZM26.3448 8.12195V8.60976H25.857V8.12195H26.3448ZM26.3448 7.63415V8.12195H25.857V7.63415H26.3448ZM26.3448 7.14634V7.63415H25.857V7.14634H26.3448ZM26.3448 6.65854V7.14634H25.857V6.65854H26.3448ZM26.3448 6.17073V6.65854H25.857V6.17073H26.3448ZM25.857 6.17073V6.65854H25.3692V6.17073H25.857ZM25.3692 6.17073V6.65854H24.8814V6.17073H25.3692ZM24.8814 6.17073V6.65854H24.3936V6.17073H24.8814ZM24.8814 6.65854V7.14634H24.3936V6.65854H24.8814ZM24.8814 7.14634V7.63415H24.3936V7.14634H24.8814ZM24.8814 7.63415V8.12195H24.3936V7.63415H24.8814ZM24.8814 8.12195V8.60976H24.3936V8.12195H24.8814ZM24.8814 8.60976V9.09756H24.3936V8.60976H24.8814ZM24.8814 9.09756V9.58537H24.3936V9.09756H24.8814ZM24.8814 9.58537V10.0732H24.3936V9.58537H24.8814ZM25.3692 10.0732V10.561H24.8814V10.0732H25.3692ZM25.857 10.0732V10.561H25.3692V10.0732H25.857ZM25.857 9.58537V10.0732H25.3692V9.58537H25.857ZM25.857 9.09756V9.58537H25.3692V9.09756H25.857ZM25.857 8.60976V9.09756H25.3692V8.60976H25.857ZM25.857 8.12195V8.60976H25.3692V8.12195H25.857ZM25.3692 8.12195V8.60976H24.8814V8.12195H25.3692ZM25.3692 7.63415V8.12195H24.8814V7.63415H25.3692ZM25.3692 7.14634V7.63415H24.8814V7.14634H25.3692ZM25.3692 6.65854V7.14634H24.8814V6.65854H25.3692ZM25.857 6.65854V7.14634H25.3692V6.65854H25.857ZM25.857 7.14634V7.63415H25.3692V7.14634H25.857ZM25.857 7.63415V8.12195H25.3692V7.63415H25.857ZM25.3692 9.09756V9.58537H24.8814V9.09756H25.3692ZM25.3692 9.58537V10.0732H24.8814V9.58537H25.3692ZM25.3692 8.60976V9.09756H24.8814V8.60976H25.3692ZM29.2716 11.0488V11.5366H28.7838V11.0488H29.2716ZM28.7838 12.5122V13H28.296V12.5122H28.7838ZM28.296 12.5122V13H27.8082V12.5122H28.296ZM27.8082 12.5122V13H27.3204V12.5122H27.8082ZM27.3204 12.5122V13H26.8326V12.5122H27.3204ZM26.8326 12.5122V13H26.3448V12.5122H26.8326ZM26.3448 12.5122V13H25.857V12.5122H26.3448ZM26.8326 12.0244V12.5122H26.3448V12.0244H26.8326ZM27.3204 12.0244V12.5122H26.8326V12.0244H27.3204ZM27.8082 12.0244V12.5122H27.3204V12.0244H27.8082ZM28.296 12.0244V12.5122H27.8082V12.0244H28.296ZM28.7838 12.0244V12.5122H28.296V12.0244H28.7838ZM29.2716 12.0244V12.5122H28.7838V12.0244H29.2716ZM29.2716 11.5366V12.0244H28.7838V11.5366H29.2716ZM28.7838 11.5366V12.0244H28.296V11.5366H28.7838ZM28.296 11.5366V12.0244H27.8082V11.5366H28.296ZM27.8082 11.5366V12.0244H27.3204V11.5366H27.8082ZM27.3204 11.5366V12.0244H26.8326V11.5366H27.3204ZM26.8326 11.5366V12.0244H26.3448V11.5366H26.8326ZM26.3448 12.0244V12.5122H25.857V12.0244H26.3448ZM25.857 12.0244V12.5122H25.3692V12.0244H25.857ZM25.3692 12.0244V12.5122H24.8814V12.0244H25.3692ZM25.3692 11.5366V12.0244H24.8814V11.5366H25.3692ZM24.8814 11.5366V12.0244H24.3936V11.5366H24.8814ZM24.8814 11.0488V11.5366H24.3936V11.0488H24.8814ZM25.3692 11.0488V11.5366H24.8814V11.0488H25.3692ZM25.857 11.0488V11.5366H25.3692V11.0488H25.857ZM26.3448 11.0488V11.5366H25.857V11.0488H26.3448ZM26.8326 11.0488V11.5366H26.3448V11.0488H26.8326ZM27.3204 11.0488V11.5366H26.8326V11.0488H27.3204ZM27.8082 11.0488V11.5366H27.3204V11.0488H27.8082ZM28.296 11.0488V11.5366H27.8082V11.0488H28.296ZM28.7838 11.0488V11.5366H28.296V11.0488H28.7838ZM26.3448 11.5366V12.0244H25.857V11.5366H26.3448ZM25.857 11.5366V12.0244H25.3692V11.5366H25.857ZM29.7594 11.5366V12.0244H29.2716V11.5366H29.7594ZM29.7594 11.0488V11.5366H29.2716V11.0488H29.7594ZM29.7594 10.561V11.0488H29.2716V10.561H29.7594ZM29.7594 10.0732V10.561H29.2716V10.0732H29.7594ZM29.7594 9.58537V10.0732H29.2716V9.58537H29.7594ZM29.7594 9.09756V9.58537H29.2716V9.09756H29.7594ZM29.7594 8.60976V9.09756H29.2716V8.60976H29.7594ZM29.7594 8.12195V8.60976H29.2716V8.12195H29.7594ZM29.7594 7.63415V8.12195H29.2716V7.63415H29.7594ZM29.7594 7.14634V7.63415H29.2716V7.14634H29.7594ZM29.7594 6.65854V7.14634H29.2716V6.65854H29.7594ZM29.7594 6.17073V6.65854H29.2716V6.17073H29.7594ZM29.7594 5.68293V6.17073H29.2716V5.68293H29.7594ZM30.2472 5.68293V6.17073H29.7594V5.68293H30.2472ZM30.2472 6.17073V6.65854H29.7594V6.17073H30.2472ZM30.2472 6.65854V7.14634H29.7594V6.65854H30.2472ZM30.2472 7.14634V7.63415H29.7594V7.14634H30.2472ZM30.2472 7.63415V8.12195H29.7594V7.63415H30.2472ZM30.2472 8.12195V8.60976H29.7594V8.12195H30.2472ZM30.2472 8.60976V9.09756H29.7594V8.60976H30.2472ZM30.735 9.09756V9.58537H30.2472V9.09756H30.735ZM30.735 9.58537V10.0732H30.2472V9.58537H30.735ZM30.735 10.0732V10.561H30.2472V10.0732H30.735ZM30.735 10.561V11.0488H30.2472V10.561H30.735ZM30.735 11.0488V11.5366H30.2472V11.0488H30.735ZM30.735 11.5366V12.0244H30.2472V11.5366H30.735ZM30.735 12.0244V12.5122H30.2472V12.0244H30.735ZM30.735 12.5122V13H30.2472V12.5122H30.735ZM31.2228 12.5122V13H30.735V12.5122H31.2228ZM31.7107 12.5122V13H31.2228V12.5122H31.7107ZM31.7107 12.0244V12.5122H31.2228V12.0244H31.7107ZM31.7107 11.5366V12.0244H31.2228V11.5366H31.7107ZM31.7107 11.0488V11.5366H31.2228V11.0488H31.7107ZM31.7107 10.561V11.0488H31.2228V10.561H31.7107ZM31.7107 10.0732V10.561H31.2228V10.0732H31.7107ZM31.7107 9.58537V10.0732H31.2228V9.58537H31.7107ZM31.7107 9.09756V9.58537H31.2228V9.09756H31.7107ZM31.2228 9.09756V9.58537H30.735V9.09756H31.2228ZM31.2228 8.60976V9.09756H30.735V8.60976H31.2228ZM31.2228 9.58537V10.0732H30.735V9.58537H31.2228ZM31.2228 10.0732V10.561H30.735V10.0732H31.2228ZM31.2228 10.561V11.0488H30.735V10.561H31.2228ZM31.2228 11.0488V11.5366H30.735V11.0488H31.2228ZM31.2228 11.5366V12.0244H30.735V11.5366H31.2228ZM31.2228 12.0244V12.5122H30.735V12.0244H31.2228ZM30.2472 11.5366V12.0244H29.7594V11.5366H30.2472ZM30.2472 11.0488V11.5366H29.7594V11.0488H30.2472ZM30.2472 10.561V11.0488H29.7594V10.561H30.2472ZM30.2472 10.0732V10.561H29.7594V10.0732H30.2472ZM30.2472 9.58537V10.0732H29.7594V9.58537H30.2472ZM30.2472 9.09756V9.58537H29.7594V9.09756H30.2472ZM29.7594 0.804878V1.29268H29.2716V0.804878H29.7594ZM29.7594 1.29268V1.78049H29.2716V1.29268H29.7594ZM29.7594 1.78049V2.26829H29.2716V1.78049H29.7594ZM29.7594 2.26829V2.7561H29.2716V2.26829H29.7594ZM29.7594 2.7561V3.2439H29.2716V2.7561H29.7594ZM29.7594 3.2439V3.73171H29.2716V3.2439H29.7594ZM29.7594 4.21951V4.70732H29.2716V4.21951H29.7594ZM29.7594 5.19512V5.68293H29.2716V5.19512H29.7594ZM31.2228 0.804878V1.29268H30.735V0.804878H31.2228ZM31.2228 1.29268V1.78049H30.735V1.29268H31.2228ZM31.2228 1.78049V2.26829H30.735V1.78049H31.2228ZM31.2228 2.26829V2.7561H30.735V2.26829H31.2228ZM31.2228 2.7561V3.2439H30.735V2.7561H31.2228ZM31.2228 3.2439V3.73171H30.735V3.2439H31.2228ZM31.2228 4.21951V4.70732H30.735V4.21951H31.2228ZM31.2228 4.70732V5.19512H30.735V4.70732H31.2228ZM31.2228 5.19512V5.68293H30.735V5.19512H31.2228ZM31.2228 6.17073V6.65854H30.735V6.17073H31.2228ZM31.2228 6.65854V7.14634H30.735V6.65854H31.2228ZM31.2228 7.14634V7.63415H30.735V7.14634H31.2228ZM31.7107 7.63415V8.12195H31.2228V7.63415H31.7107ZM31.7107 8.12195V8.60976H31.2228V8.12195H31.7107ZM31.7107 8.60976V9.09756H31.2228V8.60976H31.7107ZM31.7107 7.14634V7.63415H31.2228V7.14634H31.7107ZM31.7107 6.65854V7.14634H31.2228V6.65854H31.7107ZM31.7107 5.68293V6.17073H31.2228V5.68293H31.7107ZM31.7107 5.19512V5.68293H31.2228V5.19512H31.7107ZM31.7107 4.70732V5.19512H31.2228V4.70732H31.7107ZM31.7107 4.21951V4.70732H31.2228V4.21951H31.7107ZM31.7107 3.73171V4.21951H31.2228V3.73171H31.7107ZM31.7107 3.2439V3.73171H31.2228V3.2439H31.7107ZM31.7107 2.7561V3.2439H31.2228V2.7561H31.7107ZM31.2228 3.73171V4.21951H30.735V3.73171H31.2228ZM31.7107 2.26829V2.7561H31.2228V2.26829H31.7107ZM31.7107 1.78049V2.26829H31.2228V1.78049H31.7107ZM31.7107 1.29268V1.78049H31.2228V1.29268H31.7107ZM31.7107 0.804878V1.29268H31.2228V0.804878H31.7107ZM30.735 0.804878V1.29268H30.2472V0.804878H30.735ZM30.2472 0.804878V1.29268H29.7594V0.804878H30.2472ZM30.2472 1.29268V1.78049H29.7594V1.29268H30.2472ZM30.735 1.29268V1.78049H30.2472V1.29268H30.735ZM30.735 1.78049V2.26829H30.2472V1.78049H30.735ZM30.735 2.26829V2.7561H30.2472V2.26829H30.735ZM30.735 2.7561V3.2439H30.2472V2.7561H30.735ZM30.735 3.2439V3.73171H30.2472V3.2439H30.735ZM30.735 3.73171V4.21951H30.2472V3.73171H30.735ZM30.735 4.21951V4.70732H30.2472V4.21951H30.735ZM30.2472 4.70732V5.19512H29.7594V4.70732H30.2472ZM30.2472 5.19512V5.68293H29.7594V5.19512H30.2472ZM30.2472 4.21951V4.70732H29.7594V4.21951H30.2472ZM30.2472 3.73171V4.21951H29.7594V3.73171H30.2472ZM30.2472 3.2439V3.73171H29.7594V3.2439H30.2472ZM30.2472 2.7561V3.2439H29.7594V2.7561H30.2472ZM30.2472 2.26829V2.7561H29.7594V2.26829H30.2472ZM30.2472 1.78049V2.26829H29.7594V1.78049H30.2472ZM30.735 5.19512V5.68293H30.2472V5.19512H30.735ZM30.735 6.17073V6.65854H30.2472V6.17073H30.735ZM30.735 6.65854V7.14634H30.2472V6.65854H30.735ZM30.735 7.14634V7.63415H30.2472V7.14634H30.735ZM30.735 7.63415V8.12195H30.2472V7.63415H30.735ZM30.735 8.12195V8.60976H30.2472V8.12195H30.735ZM30.735 8.60976V9.09756H30.2472V8.60976H30.735ZM31.2228 8.12195V8.60976H30.735V8.12195H31.2228ZM31.2228 7.63415V8.12195H30.735V7.63415H31.2228ZM29.7594 3.73171V4.21951H29.2716V3.73171H29.7594ZM31.7107 6.17073V6.65854H31.2228V6.17073H31.7107ZM29.7594 4.70732V5.19512H29.2716V4.70732H29.7594ZM30.735 4.70732V5.19512H30.2472V4.70732H30.735ZM30.735 5.68293V6.17073H30.2472V5.68293H30.735ZM31.2228 5.68293V6.17073H30.735V5.68293H31.2228ZM29.7594 12.0244V12.5122H29.2716V12.0244H29.7594ZM30.2472 12.0244V12.5122H29.7594V12.0244H30.2472ZM30.2472 12.5122V13H29.7594V12.5122H30.2472ZM29.2716 3.73171V4.21951H28.7838V3.73171H29.2716ZM29.2716 10.561V11.0488H28.7838V10.561H29.2716ZM29.7594 12.5122V13H29.2716V12.5122H29.7594ZM34.1587 10.561V11.0488H33.6709V10.561H34.1587ZM34.1587 10.0732V10.561H33.6709V10.0732H34.1587ZM34.1587 9.58537V10.0732H33.6709V9.58537H34.1587ZM34.1587 9.09756V9.58537H33.6709V9.09756H34.1587ZM34.1587 8.60976V9.09756H33.6709V8.60976H34.1587ZM34.1587 8.12195V8.60976H33.6709V8.12195H34.1587ZM34.1587 7.63415V8.12195H33.6709V7.63415H34.1587ZM34.1587 7.14634V7.63415H33.6709V7.14634H34.1587ZM34.1587 6.65854V7.14634H33.6709V6.65854H34.1587ZM34.1587 6.17073V6.65854H33.6709V6.17073H34.1587ZM34.1587 5.68293V6.17073H33.6709V5.68293H34.1587ZM34.6465 5.68293V6.17073H34.1587V5.68293H34.6465ZM34.6465 6.17073V6.65854H34.1587V6.17073H34.6465ZM34.6465 6.65854V7.14634H34.1587V6.65854H34.6465ZM34.6465 7.14634V7.63415H34.1587V7.14634H34.6465ZM34.6465 7.63415V8.12195H34.1587V7.63415H34.6465ZM34.6465 8.12195V8.60976H34.1587V8.12195H34.6465ZM34.6465 8.60976V9.09756H34.1587V8.60976H34.6465ZM35.1343 9.09756V9.58537H34.6465V9.09756H35.1343ZM35.1343 9.58537V10.0732H34.6465V9.58537H35.1343ZM35.1343 10.0732V10.561H34.6465V10.0732H35.1343ZM35.1343 10.561V11.0488H34.6465V10.561H35.1343ZM35.1343 11.0488V11.5366H34.6465V11.0488H35.1343ZM35.1343 11.5366V12.0244H34.6465V11.5366H35.1343ZM35.1343 12.0244V12.5122H34.6465V12.0244H35.1343ZM36.1099 12.5122V13H35.6221V12.5122H36.1099ZM36.1099 12.0244V12.5122H35.6221V12.0244H36.1099ZM36.1099 11.5366V12.0244H35.6221V11.5366H36.1099ZM36.1099 11.0488V11.5366H35.6221V11.0488H36.1099ZM36.1099 10.561V11.0488H35.6221V10.561H36.1099ZM36.1099 10.0732V10.561H35.6221V10.0732H36.1099ZM36.1099 9.58537V10.0732H35.6221V9.58537H36.1099ZM36.1099 9.09756V9.58537H35.6221V9.09756H36.1099ZM35.6221 9.09756V9.58537H35.1343V9.09756H35.6221ZM35.6221 8.60976V9.09756H35.1343V8.60976H35.6221ZM35.6221 9.58537V10.0732H35.1343V9.58537H35.6221ZM35.6221 10.0732V10.561H35.1343V10.0732H35.6221ZM35.6221 10.561V11.0488H35.1343V10.561H35.6221ZM35.6221 11.0488V11.5366H35.1343V11.0488H35.6221ZM35.6221 11.5366V12.0244H35.1343V11.5366H35.6221ZM35.6221 12.0244V12.5122H35.1343V12.0244H35.6221ZM34.6465 11.5366V12.0244H34.1587V11.5366H34.6465ZM34.6465 11.0488V11.5366H34.1587V11.0488H34.6465ZM34.6465 10.561V11.0488H34.1587V10.561H34.6465ZM34.6465 10.0732V10.561H34.1587V10.0732H34.6465ZM34.6465 9.58537V10.0732H34.1587V9.58537H34.6465ZM34.6465 9.09756V9.58537H34.1587V9.09756H34.6465ZM34.1587 5.19512V5.68293H33.6709V5.19512H34.1587ZM35.6221 5.19512V5.68293H35.1343V5.19512H35.6221ZM35.6221 5.68293V6.17073H35.1343V5.68293H35.6221ZM35.6221 6.17073V6.65854H35.1343V6.17073H35.6221ZM35.6221 6.65854V7.14634H35.1343V6.65854H35.6221ZM35.6221 7.14634V7.63415H35.1343V7.14634H35.6221ZM36.1099 7.63415V8.12195H35.6221V7.63415H36.1099ZM36.1099 8.12195V8.60976H35.6221V8.12195H36.1099ZM36.1099 8.60976V9.09756H35.6221V8.60976H36.1099ZM36.1099 7.14634V7.63415H35.6221V7.14634H36.1099ZM36.1099 6.65854V7.14634H35.6221V6.65854H36.1099ZM36.1099 6.17073V6.65854H35.6221V6.17073H36.1099ZM36.1099 5.68293V6.17073H35.6221V5.68293H36.1099ZM36.1099 5.19512V5.68293H35.6221V5.19512H36.1099ZM34.6465 5.19512V5.68293H34.1587V5.19512H34.6465ZM35.1343 5.19512V5.68293H34.6465V5.19512H35.1343ZM35.1343 5.68293V6.17073H34.6465V5.68293H35.1343ZM35.1343 6.17073V6.65854H34.6465V6.17073H35.1343ZM35.1343 6.65854V7.14634H34.6465V6.65854H35.1343ZM35.1343 7.14634V7.63415H34.6465V7.14634H35.1343ZM35.1343 7.63415V8.12195H34.6465V7.63415H35.1343ZM35.1343 8.12195V8.60976H34.6465V8.12195H35.1343ZM35.1343 8.60976V9.09756H34.6465V8.60976H35.1343ZM35.6221 8.12195V8.60976H35.1343V8.12195H35.6221ZM35.6221 7.63415V8.12195H35.1343V7.63415H35.6221ZM40.0124 12.5122V13H39.5246V12.5122H40.0124ZM40.0124 12.0244V12.5122H39.5246V12.0244H40.0124ZM40.0124 11.5366V12.0244H39.5246V11.5366H40.0124ZM40.0124 11.0488V11.5366H39.5246V11.0488H40.0124ZM40.0124 10.561V11.0488H39.5246V10.561H40.0124ZM40.0124 10.0732V10.561H39.5246V10.0732H40.0124ZM40.0124 9.58537V10.0732H39.5246V9.58537H40.0124ZM40.0124 9.09756V9.58537H39.5246V9.09756H40.0124ZM40.0124 8.60976V9.09756H39.5246V8.60976H40.0124ZM40.0124 8.12195V8.60976H39.5246V8.12195H40.0124ZM40.0124 7.63415V8.12195H39.5246V7.63415H40.0124ZM40.0124 7.14634V7.63415H39.5246V7.14634H40.0124ZM40.0124 6.65854V7.14634H39.5246V6.65854H40.0124ZM40.0124 6.17073V6.65854H39.5246V6.17073H40.0124ZM40.0124 5.68293V6.17073H39.5246V5.68293H40.0124ZM40.5002 5.68293V6.17073H40.0124V5.68293H40.5002ZM40.5002 6.17073V6.65854H40.0124V6.17073H40.5002ZM40.5002 6.65854V7.14634H40.0124V6.65854H40.5002ZM40.5002 7.14634V7.63415H40.0124V7.14634H40.5002ZM40.5002 7.63415V8.12195H40.0124V7.63415H40.5002ZM40.5002 8.12195V8.60976H40.0124V8.12195H40.5002ZM40.5002 8.60976V9.09756H40.0124V8.60976H40.5002ZM40.988 9.09756V9.58537H40.5002V9.09756H40.988ZM40.988 9.58537V10.0732H40.5002V9.58537H40.988ZM40.988 10.0732V10.561H40.5002V10.0732H40.988ZM40.988 10.561V11.0488H40.5002V10.561H40.988ZM40.988 11.0488V11.5366H40.5002V11.0488H40.988ZM40.988 11.5366V12.0244H40.5002V11.5366H40.988ZM40.988 12.0244V12.5122H40.5002V12.0244H40.988ZM41.9636 10.561V11.0488H41.4758V10.561H41.9636ZM41.9636 10.0732V10.561H41.4758V10.0732H41.9636ZM41.9636 9.58537V10.0732H41.4758V9.58537H41.9636ZM41.9636 9.09756V9.58537H41.4758V9.09756H41.9636ZM41.4758 9.09756V9.58537H40.988V9.09756H41.4758ZM41.4758 8.60976V9.09756H40.988V8.60976H41.4758ZM41.4758 9.58537V10.0732H40.988V9.58537H41.4758ZM41.4758 10.0732V10.561H40.988V10.0732H41.4758ZM41.4758 10.561V11.0488H40.988V10.561H41.4758ZM41.4758 11.0488V11.5366H40.988V11.0488H41.4758ZM41.4758 11.5366V12.0244H40.988V11.5366H41.4758ZM40.5002 12.0244V12.5122H40.0124V12.0244H40.5002ZM40.5002 11.5366V12.0244H40.0124V11.5366H40.5002ZM40.5002 11.0488V11.5366H40.0124V11.0488H40.5002ZM40.5002 10.561V11.0488H40.0124V10.561H40.5002ZM40.5002 10.0732V10.561H40.0124V10.0732H40.5002ZM40.5002 9.58537V10.0732H40.0124V9.58537H40.5002ZM40.5002 9.09756V9.58537H40.0124V9.09756H40.5002ZM40.0124 5.19512V5.68293H39.5246V5.19512H40.0124ZM41.4758 5.19512V5.68293H40.988V5.19512H41.4758ZM41.4758 5.68293V6.17073H40.988V5.68293H41.4758ZM41.4758 6.17073V6.65854H40.988V6.17073H41.4758ZM41.4758 6.65854V7.14634H40.988V6.65854H41.4758ZM41.4758 7.14634V7.63415H40.988V7.14634H41.4758ZM41.9636 7.63415V8.12195H41.4758V7.63415H41.9636ZM41.9636 8.12195V8.60976H41.4758V8.12195H41.9636ZM41.9636 8.60976V9.09756H41.4758V8.60976H41.9636ZM41.9636 7.14634V7.63415H41.4758V7.14634H41.9636ZM41.9636 6.65854V7.14634H41.4758V6.65854H41.9636ZM41.9636 6.17073V6.65854H41.4758V6.17073H41.9636ZM41.9636 5.68293V6.17073H41.4758V5.68293H41.9636ZM41.9636 5.19512V5.68293H41.4758V5.19512H41.9636ZM40.5002 5.19512V5.68293H40.0124V5.19512H40.5002ZM40.988 5.19512V5.68293H40.5002V5.19512H40.988ZM40.988 5.68293V6.17073H40.5002V5.68293H40.988ZM40.988 6.17073V6.65854H40.5002V6.17073H40.988ZM40.988 6.65854V7.14634H40.5002V6.65854H40.988ZM40.988 7.14634V7.63415H40.5002V7.14634H40.988ZM40.988 7.63415V8.12195H40.5002V7.63415H40.988ZM40.988 8.12195V8.60976H40.5002V8.12195H40.988ZM40.988 8.60976V9.09756H40.5002V8.60976H40.988ZM41.4758 8.12195V8.60976H40.988V8.12195H41.4758ZM41.4758 7.63415V8.12195H40.988V7.63415H41.4758ZM36.5978 12.5122V13H36.1099V12.5122H36.5978ZM37.0856 12.5122V13H36.5978V12.5122H37.0856ZM38.0612 12.5122V13H37.5734V12.5122H38.0612ZM38.549 12.5122V13H38.0612V12.5122H38.549ZM39.0368 12.5122V13H38.549V12.5122H39.0368ZM39.5246 12.5122V13H39.0368V12.5122H39.5246ZM39.5246 12.0244V12.5122H39.0368V12.0244H39.5246ZM39.0368 12.0244V12.5122H38.549V12.0244H39.0368ZM38.549 12.0244V12.5122H38.0612V12.0244H38.549ZM38.0612 12.0244V12.5122H37.5734V12.0244H38.0612ZM37.0856 12.0244V12.5122H36.5978V12.0244H37.0856ZM36.5978 12.0244V12.5122H36.1099V12.0244H36.5978ZM36.5978 11.5366V12.0244H36.1099V11.5366H36.5978ZM37.0856 11.5366V12.0244H36.5978V11.5366H37.0856ZM38.0612 11.5366V12.0244H37.5734V11.5366H38.0612ZM38.549 11.5366V12.0244H38.0612V11.5366H38.549ZM39.0368 11.5366V12.0244H38.549V11.5366H39.0368ZM39.5246 11.5366V12.0244H39.0368V11.5366H39.5246ZM39.5246 11.0488V11.5366H39.0368V11.0488H39.5246ZM39.0368 11.0488V11.5366H38.549V11.0488H39.0368ZM38.549 11.0488V11.5366H38.0612V11.0488H38.549ZM38.0612 11.0488V11.5366H37.5734V11.0488H38.0612ZM37.0856 11.0488V11.5366H36.5978V11.0488H37.0856ZM36.5978 11.0488V11.5366H36.1099V11.0488H36.5978ZM36.5978 10.561V11.0488H36.1099V10.561H36.5978ZM39.5246 10.561V11.0488H39.0368V10.561H39.5246ZM41.4758 3.2439V2.7561H41.9636V3.2439H41.4758ZM41.4758 3.73171V3.2439H41.9636V3.73171H41.4758ZM41.4758 4.21951V3.73171H41.9636V4.21951H41.4758ZM40.5002 4.21951V3.73171H40.988V4.21951H40.5002ZM40.5002 3.73171V3.2439H40.988V3.73171H40.5002ZM40.5002 3.2439V2.7561H40.988V3.2439H40.5002ZM40.5002 2.7561V2.26829H40.988V2.7561H40.5002ZM40.5002 2.26829V1.78049H40.988V2.26829H40.5002ZM40.5002 1.78049V1.29268H40.988V1.78049H40.5002ZM39.5246 1.29268V0.804878H40.0124V1.29268H39.5246ZM39.5246 1.78049V1.29268H40.0124V1.78049H39.5246ZM39.5246 2.26829V1.78049H40.0124V2.26829H39.5246ZM39.5246 2.7561V2.26829H40.0124V2.7561H39.5246ZM39.5246 3.2439V2.7561H40.0124V3.2439H39.5246ZM39.5246 3.73171V3.2439H40.0124V3.73171H39.5246ZM39.5246 4.21951V3.73171H40.0124V4.21951H39.5246ZM40.0124 4.21951V3.73171H40.5002V4.21951H40.0124ZM40.0124 3.73171V3.2439H40.5002V3.73171H40.0124ZM40.0124 3.2439V2.7561H40.5002V3.2439H40.0124ZM40.0124 2.7561V2.26829H40.5002V2.7561H40.0124ZM40.0124 2.26829V1.78049H40.5002V2.26829H40.0124ZM40.0124 1.78049V1.29268H40.5002V1.78049H40.0124ZM40.988 2.26829V1.78049H41.4758V2.26829H40.988ZM40.988 2.7561V2.26829H41.4758V2.7561H40.988ZM40.988 3.2439V2.7561H41.4758V3.2439H40.988ZM40.988 3.73171V3.2439H41.4758V3.73171H40.988ZM40.988 4.21951V3.73171H41.4758V4.21951H40.988ZM35.6221 1.29268V0.804878H36.1099V1.29268H35.6221ZM35.6221 1.78049V1.29268H36.1099V1.78049H35.6221ZM35.6221 2.26829V1.78049H36.1099V2.26829H35.6221ZM35.6221 2.7561V2.26829H36.1099V2.7561H35.6221ZM35.6221 3.2439V2.7561H36.1099V3.2439H35.6221ZM35.6221 3.73171V3.2439H36.1099V3.73171H35.6221ZM35.6221 4.21951V3.73171H36.1099V4.21951H35.6221ZM34.6465 4.21951V3.73171H35.1343V4.21951H34.6465ZM34.6465 3.73171V3.2439H35.1343V3.73171H34.6465ZM34.6465 3.2439V2.7561H35.1343V3.2439H34.6465ZM34.6465 2.7561V2.26829H35.1343V2.7561H34.6465ZM34.6465 2.26829V1.78049H35.1343V2.26829H34.6465ZM34.6465 1.78049V1.29268H35.1343V1.78049H34.6465ZM33.6709 3.2439V2.7561H34.1587V3.2439H33.6709ZM33.6709 3.73171V3.2439H34.1587V3.73171H33.6709ZM33.6709 4.21951V3.73171H34.1587V4.21951H33.6709ZM34.1587 4.21951V3.73171H34.6465V4.21951H34.1587ZM34.1587 3.73171V3.2439H34.6465V3.73171H34.1587ZM34.1587 3.2439V2.7561H34.6465V3.2439H34.1587ZM34.1587 2.7561V2.26829H34.6465V2.7561H34.1587ZM34.1587 2.26829V1.78049H34.6465V2.26829H34.1587ZM35.1343 1.78049V1.29268H35.6221V1.78049H35.1343ZM35.1343 2.26829V1.78049H35.6221V2.26829H35.1343ZM35.1343 2.7561V2.26829H35.6221V2.7561H35.1343ZM35.1343 3.2439V2.7561H35.6221V3.2439H35.1343ZM35.1343 3.73171V3.2439H35.6221V3.73171H35.1343ZM35.1343 4.21951V3.73171H35.6221V4.21951H35.1343ZM34.1587 4.70732V5.19512H33.6709V4.70732H34.1587ZM34.6465 4.70732V5.19512H34.1587V4.70732H34.6465ZM34.1587 4.21951V4.70732H33.6709V4.21951H34.1587ZM35.6221 4.21951V4.70732H35.1343V4.21951H35.6221ZM35.6221 4.70732V5.19512H35.1343V4.70732H35.6221ZM36.1099 4.70732V5.19512H35.6221V4.70732H36.1099ZM36.1099 4.21951V4.70732H35.6221V4.21951H36.1099ZM34.6465 4.21951V4.70732H34.1587V4.21951H34.6465ZM35.1343 4.21951V4.70732H34.6465V4.21951H35.1343ZM35.1343 4.70732V5.19512H34.6465V4.70732H35.1343ZM40.0124 4.70732V5.19512H39.5246V4.70732H40.0124ZM40.5002 4.70732V5.19512H40.0124V4.70732H40.5002ZM40.0124 4.21951V4.70732H39.5246V4.21951H40.0124ZM41.4758 4.21951V4.70732H40.988V4.21951H41.4758ZM41.4758 4.70732V5.19512H40.988V4.70732H41.4758ZM41.9636 4.70732V5.19512H41.4758V4.70732H41.9636ZM41.9636 4.21951V4.70732H41.4758V4.21951H41.9636ZM40.5002 4.21951V4.70732H40.0124V4.21951H40.5002ZM40.988 4.21951V4.70732H40.5002V4.21951H40.988ZM40.988 4.70732V5.19512H40.5002V4.70732H40.988ZM37.0856 10.561V11.0488H36.5978V10.561H37.0856ZM38.0612 10.561V11.0488H37.5734V10.561H38.0612ZM38.549 10.561V11.0488H38.0612V10.561H38.549ZM39.0368 10.561V11.0488H38.549V10.561H39.0368ZM39.5246 10.0732V10.561H39.0368V10.0732H39.5246ZM36.5978 10.0732V10.561H36.1099V10.0732H36.5978ZM34.1587 2.26829V2.7561H33.6709V2.26829H34.1587ZM34.1587 1.78049V2.26829H33.6709V1.78049H34.1587ZM34.1587 1.29268V1.78049H33.6709V1.29268H34.1587ZM34.1587 0.804878V1.29268H33.6709V0.804878H34.1587ZM34.6465 0.804878V1.29268H34.1587V0.804878H34.6465ZM35.1343 0.804878V1.29268H34.6465V0.804878H35.1343ZM35.6221 0.804878V1.29268H35.1343V0.804878H35.6221ZM34.6465 1.29268V1.78049H34.1587V1.29268H34.6465ZM40.5002 0.804878V1.29268H40.0124V0.804878H40.5002ZM40.988 0.804878V1.29268H40.5002V0.804878H40.988ZM41.4758 0.804878V1.29268H40.988V0.804878H41.4758ZM41.9636 0.804878V1.29268H41.4758V0.804878H41.9636ZM41.9636 1.29268V1.78049H41.4758V1.29268H41.9636ZM41.9636 1.78049V2.26829H41.4758V1.78049H41.9636ZM41.9636 2.26829V2.7561H41.4758V2.26829H41.9636ZM41.4758 1.29268V1.78049H40.988V1.29268H41.4758ZM37.5734 10.561V11.0488H37.0856V10.561H37.5734ZM37.5734 11.0488V11.5366H37.0856V11.0488H37.5734ZM37.5734 11.5366V12.0244H37.0856V11.5366H37.5734ZM37.5734 12.0244V12.5122H37.0856V12.0244H37.5734ZM37.5734 12.5122V13H37.0856V12.5122H37.5734ZM44.3931 10.561V11.0488H43.9053V10.561H44.3931ZM44.3931 10.0732V10.561H43.9053V10.0732H44.3931ZM44.3931 9.58537V10.0732H43.9053V9.58537H44.3931ZM44.3931 9.09756V9.58537H43.9053V9.09756H44.3931ZM44.3931 8.60976V9.09756H43.9053V8.60976H44.3931ZM44.3931 8.12195V8.60976H43.9053V8.12195H44.3931ZM44.3931 7.63415V8.12195H43.9053V7.63415H44.3931ZM44.3931 7.14634V7.63415H43.9053V7.14634H44.3931ZM44.3931 6.65854V7.14634H43.9053V6.65854H44.3931ZM44.3931 6.17073V6.65854H43.9053V6.17073H44.3931ZM44.3931 5.68293V6.17073H43.9053V5.68293H44.3931ZM44.8809 5.68293V6.17073H44.3931V5.68293H44.8809ZM44.8809 6.17073V6.65854H44.3931V6.17073H44.8809ZM44.8809 6.65854V7.14634H44.3931V6.65854H44.8809ZM44.8809 7.14634V7.63415H44.3931V7.14634H44.8809ZM44.8809 7.63415V8.12195H44.3931V7.63415H44.8809ZM44.8809 8.12195V8.60976H44.3931V8.12195H44.8809ZM44.8809 8.60976V9.09756H44.3931V8.60976H44.8809ZM45.3687 9.09756V9.58537H44.8809V9.09756H45.3687ZM45.3687 9.58537V10.0732H44.8809V9.58537H45.3687ZM45.3687 10.0732V10.561H44.8809V10.0732H45.3687ZM45.3687 10.561V11.0488H44.8809V10.561H45.3687ZM45.3687 11.0488V11.5366H44.8809V11.0488H45.3687ZM45.3687 11.5366V12.0244H44.8809V11.5366H45.3687ZM45.3687 12.0244V12.5122H44.8809V12.0244H45.3687ZM46.3443 12.5122V13H45.8565V12.5122H46.3443ZM46.3443 12.0244V12.5122H45.8565V12.0244H46.3443ZM46.3443 11.5366V12.0244H45.8565V11.5366H46.3443ZM46.3443 11.0488V11.5366H45.8565V11.0488H46.3443ZM46.3443 10.561V11.0488H45.8565V10.561H46.3443ZM46.3443 10.0732V10.561H45.8565V10.0732H46.3443ZM46.3443 9.58537V10.0732H45.8565V9.58537H46.3443ZM46.3443 9.09756V9.58537H45.8565V9.09756H46.3443ZM45.8565 9.09756V9.58537H45.3687V9.09756H45.8565ZM45.8565 8.60976V9.09756H45.3687V8.60976H45.8565ZM45.8565 9.58537V10.0732H45.3687V9.58537H45.8565ZM45.8565 10.0732V10.561H45.3687V10.0732H45.8565ZM45.8565 10.561V11.0488H45.3687V10.561H45.8565ZM45.8565 11.0488V11.5366H45.3687V11.0488H45.8565ZM45.8565 11.5366V12.0244H45.3687V11.5366H45.8565ZM45.8565 12.0244V12.5122H45.3687V12.0244H45.8565ZM44.8809 11.5366V12.0244H44.3931V11.5366H44.8809ZM44.8809 11.0488V11.5366H44.3931V11.0488H44.8809ZM44.8809 10.561V11.0488H44.3931V10.561H44.8809ZM44.8809 10.0732V10.561H44.3931V10.0732H44.8809ZM44.8809 9.58537V10.0732H44.3931V9.58537H44.8809ZM44.8809 9.09756V9.58537H44.3931V9.09756H44.8809ZM44.3931 5.19512V5.68293H43.9053V5.19512H44.3931ZM45.8565 5.19512V5.68293H45.3687V5.19512H45.8565ZM45.8565 5.68293V6.17073H45.3687V5.68293H45.8565ZM45.8565 6.17073V6.65854H45.3687V6.17073H45.8565ZM45.8565 6.65854V7.14634H45.3687V6.65854H45.8565ZM45.8565 7.14634V7.63415H45.3687V7.14634H45.8565ZM46.3443 7.63415V8.12195H45.8565V7.63415H46.3443ZM46.3443 8.12195V8.60976H45.8565V8.12195H46.3443ZM46.3443 8.60976V9.09756H45.8565V8.60976H46.3443ZM46.3443 7.14634V7.63415H45.8565V7.14634H46.3443ZM46.3443 6.65854V7.14634H45.8565V6.65854H46.3443ZM46.3443 6.17073V6.65854H45.8565V6.17073H46.3443ZM46.3443 5.68293V6.17073H45.8565V5.68293H46.3443ZM46.3443 5.19512V5.68293H45.8565V5.19512H46.3443ZM44.8809 5.19512V5.68293H44.3931V5.19512H44.8809ZM45.3687 5.19512V5.68293H44.8809V5.19512H45.3687ZM45.3687 5.68293V6.17073H44.8809V5.68293H45.3687ZM45.3687 6.17073V6.65854H44.8809V6.17073H45.3687ZM45.3687 6.65854V7.14634H44.8809V6.65854H45.3687ZM45.3687 7.14634V7.63415H44.8809V7.14634H45.3687ZM45.3687 7.63415V8.12195H44.8809V7.63415H45.3687ZM45.3687 8.12195V8.60976H44.8809V8.12195H45.3687ZM45.3687 8.60976V9.09756H44.8809V8.60976H45.3687ZM45.8565 8.12195V8.60976H45.3687V8.12195H45.8565ZM45.8565 7.63415V8.12195H45.3687V7.63415H45.8565ZM50.2468 12.5122V13H49.759V12.5122H50.2468ZM50.2468 12.0244V12.5122H49.759V12.0244H50.2468ZM50.2468 11.5366V12.0244H49.759V11.5366H50.2468ZM50.2468 11.0488V11.5366H49.759V11.0488H50.2468ZM50.2468 10.561V11.0488H49.759V10.561H50.2468ZM50.2468 10.0732V10.561H49.759V10.0732H50.2468ZM50.2468 9.58537V10.0732H49.759V9.58537H50.2468ZM51.2224 9.58537V10.0732H50.7346V9.58537H51.2224ZM51.2224 10.0732V10.561H50.7346V10.0732H51.2224ZM51.2224 10.561V11.0488H50.7346V10.561H51.2224ZM51.2224 11.0488V11.5366H50.7346V11.0488H51.2224ZM51.2224 11.5366V12.0244H50.7346V11.5366H51.2224ZM51.2224 12.0244V12.5122H50.7346V12.0244H51.2224ZM52.198 10.561V11.0488H51.7102V10.561H52.198ZM52.198 10.0732V10.561H51.7102V10.0732H52.198ZM52.198 9.58537V10.0732H51.7102V9.58537H52.198ZM51.7102 9.58537V10.0732H51.2224V9.58537H51.7102ZM51.7102 10.0732V10.561H51.2224V10.0732H51.7102ZM51.7102 10.561V11.0488H51.2224V10.561H51.7102ZM51.7102 11.0488V11.5366H51.2224V11.0488H51.7102ZM51.7102 11.5366V12.0244H51.2224V11.5366H51.7102ZM50.7346 12.0244V12.5122H50.2468V12.0244H50.7346ZM50.7346 11.5366V12.0244H50.2468V11.5366H50.7346ZM50.7346 11.0488V11.5366H50.2468V11.0488H50.7346ZM50.7346 10.561V11.0488H50.2468V10.561H50.7346ZM50.7346 10.0732V10.561H50.2468V10.0732H50.7346ZM50.7346 9.58537V10.0732H50.2468V9.58537H50.7346ZM46.8321 12.5122V13H46.3443V12.5122H46.8321ZM47.3199 12.5122V13H46.8321V12.5122H47.3199ZM47.8077 12.5122V13H47.3199V12.5122H47.8077ZM48.2955 12.5122V13H47.8077V12.5122H48.2955ZM48.7833 12.5122V13H48.2955V12.5122H48.7833ZM49.759 12.5122V13H49.2712V12.5122H49.759ZM49.759 12.0244V12.5122H49.2712V12.0244H49.759ZM48.7833 12.0244V12.5122H48.2955V12.0244H48.7833ZM48.2955 12.0244V12.5122H47.8077V12.0244H48.2955ZM47.8077 12.0244V12.5122H47.3199V12.0244H47.8077ZM47.3199 12.0244V12.5122H46.8321V12.0244H47.3199ZM46.8321 12.0244V12.5122H46.3443V12.0244H46.8321ZM46.8321 11.5366V12.0244H46.3443V11.5366H46.8321ZM47.3199 11.5366V12.0244H46.8321V11.5366H47.3199ZM47.8077 11.5366V12.0244H47.3199V11.5366H47.8077ZM48.2955 11.5366V12.0244H47.8077V11.5366H48.2955ZM48.7833 11.5366V12.0244H48.2955V11.5366H48.7833ZM49.759 11.5366V12.0244H49.2712V11.5366H49.759ZM49.759 11.0488V11.5366H49.2712V11.0488H49.759ZM48.7833 11.0488V11.5366H48.2955V11.0488H48.7833ZM48.2955 11.0488V11.5366H47.8077V11.0488H48.2955ZM47.8077 11.0488V11.5366H47.3199V11.0488H47.8077ZM47.3199 11.0488V11.5366H46.8321V11.0488H47.3199ZM46.8321 11.0488V11.5366H46.3443V11.0488H46.8321ZM46.8321 10.561V11.0488H46.3443V10.561H46.8321ZM49.759 10.561V11.0488H49.2712V10.561H49.759ZM51.7102 3.2439V2.7561H52.198V3.2439H51.7102ZM51.7102 3.73171V3.2439H52.198V3.73171H51.7102ZM51.7102 4.21951V3.73171H52.198V4.21951H51.7102ZM50.7346 4.21951V3.73171H51.2224V4.21951H50.7346ZM50.7346 3.73171V3.2439H51.2224V3.73171H50.7346ZM50.7346 3.2439V2.7561H51.2224V3.2439H50.7346ZM50.7346 2.7561V2.26829H51.2224V2.7561H50.7346ZM50.7346 2.26829V1.78049H51.2224V2.26829H50.7346ZM50.7346 1.78049V1.29268H51.2224V1.78049H50.7346ZM49.759 1.29268V0.804878H50.2468V1.29268H49.759ZM49.759 1.78049V1.29268H50.2468V1.78049H49.759ZM49.759 2.26829V1.78049H50.2468V2.26829H49.759ZM49.759 2.7561V2.26829H50.2468V2.7561H49.759ZM49.759 3.2439V2.7561H50.2468V3.2439H49.759ZM49.759 3.73171V3.2439H50.2468V3.73171H49.759ZM49.759 4.21951V3.73171H50.2468V4.21951H49.759ZM50.2468 4.21951V3.73171H50.7346V4.21951H50.2468ZM50.2468 3.73171V3.2439H50.7346V3.73171H50.2468ZM50.2468 3.2439V2.7561H50.7346V3.2439H50.2468ZM50.2468 2.7561V2.26829H50.7346V2.7561H50.2468ZM50.2468 2.26829V1.78049H50.7346V2.26829H50.2468ZM50.2468 1.78049V1.29268H50.7346V1.78049H50.2468ZM51.2224 2.26829V1.78049H51.7102V2.26829H51.2224ZM51.2224 2.7561V2.26829H51.7102V2.7561H51.2224ZM51.2224 3.2439V2.7561H51.7102V3.2439H51.2224ZM51.2224 3.73171V3.2439H51.7102V3.73171H51.2224ZM51.2224 4.21951V3.73171H51.7102V4.21951H51.2224ZM45.8565 1.29268V0.804878H46.3443V1.29268H45.8565ZM45.8565 1.78049V1.29268H46.3443V1.78049H45.8565ZM45.8565 2.26829V1.78049H46.3443V2.26829H45.8565ZM45.8565 2.7561V2.26829H46.3443V2.7561H45.8565ZM45.8565 3.2439V2.7561H46.3443V3.2439H45.8565ZM45.8565 3.73171V3.2439H46.3443V3.73171H45.8565ZM45.8565 4.21951V3.73171H46.3443V4.21951H45.8565ZM44.8809 4.21951V3.73171H45.3687V4.21951H44.8809ZM44.8809 3.73171V3.2439H45.3687V3.73171H44.8809ZM44.8809 3.2439V2.7561H45.3687V3.2439H44.8809ZM44.8809 2.7561V2.26829H45.3687V2.7561H44.8809ZM44.8809 2.26829V1.78049H45.3687V2.26829H44.8809ZM44.8809 1.78049V1.29268H45.3687V1.78049H44.8809ZM43.9053 3.2439V2.7561H44.3931V3.2439H43.9053ZM43.9053 3.73171V3.2439H44.3931V3.73171H43.9053ZM43.9053 4.21951V3.73171H44.3931V4.21951H43.9053ZM44.3931 4.21951V3.73171H44.8809V4.21951H44.3931ZM44.3931 3.73171V3.2439H44.8809V3.73171H44.3931ZM44.3931 3.2439V2.7561H44.8809V3.2439H44.3931ZM44.3931 2.7561V2.26829H44.8809V2.7561H44.3931ZM44.3931 2.26829V1.78049H44.8809V2.26829H44.3931ZM45.3687 1.78049V1.29268H45.8565V1.78049H45.3687ZM45.3687 2.26829V1.78049H45.8565V2.26829H45.3687ZM45.3687 2.7561V2.26829H45.8565V2.7561H45.3687ZM45.3687 3.2439V2.7561H45.8565V3.2439H45.3687ZM45.3687 3.73171V3.2439H45.8565V3.73171H45.3687ZM45.3687 4.21951V3.73171H45.8565V4.21951H45.3687ZM49.2712 1.29268V0.804878H49.759V1.29268H49.2712ZM48.2955 1.29268V0.804878H48.7833V1.29268H48.2955ZM47.8077 1.29268V0.804878H48.2955V1.29268H47.8077ZM47.3199 1.29268V0.804878H47.8077V1.29268H47.3199ZM46.8321 1.29268V0.804878H47.3199V1.29268H46.8321ZM46.3443 1.29268V0.804878H46.8321V1.29268H46.3443ZM46.3443 1.78049V1.29268H46.8321V1.78049H46.3443ZM46.8321 1.78049V1.29268H47.3199V1.78049H46.8321ZM47.3199 1.78049V1.29268H47.8077V1.78049H47.3199ZM47.8077 1.78049V1.29268H48.2955V1.78049H47.8077ZM48.2955 1.78049V1.29268H48.7833V1.78049H48.2955ZM49.2712 1.78049V1.29268H49.759V1.78049H49.2712ZM49.2712 2.26829V1.78049H49.759V2.26829H49.2712ZM48.2955 2.26829V1.78049H48.7833V2.26829H48.2955ZM47.8077 2.26829V1.78049H48.2955V2.26829H47.8077ZM47.3199 2.26829V1.78049H47.8077V2.26829H47.3199ZM46.8321 2.26829V1.78049H47.3199V2.26829H46.8321ZM46.3443 2.26829V1.78049H46.8321V2.26829H46.3443ZM46.3443 2.7561V2.26829H46.8321V2.7561H46.3443ZM46.8321 2.7561V2.26829H47.3199V2.7561H46.8321ZM47.3199 2.7561V2.26829H47.8077V2.7561H47.3199ZM47.8077 2.7561V2.26829H48.2955V2.7561H47.8077ZM48.2955 2.7561V2.26829H48.7833V2.7561H48.2955ZM49.2712 2.7561V2.26829H49.759V2.7561H49.2712ZM49.2712 3.2439V2.7561H49.759V3.2439H49.2712ZM46.3443 3.2439V2.7561H46.8321V3.2439H46.3443ZM44.3931 4.70732V5.19512H43.9053V4.70732H44.3931ZM44.8809 4.70732V5.19512H44.3931V4.70732H44.8809ZM44.3931 4.21951V4.70732H43.9053V4.21951H44.3931ZM45.8565 4.21951V4.70732H45.3687V4.21951H45.8565ZM45.8565 4.70732V5.19512H45.3687V4.70732H45.8565ZM46.3443 4.70732V5.19512H45.8565V4.70732H46.3443ZM46.3443 4.21951V4.70732H45.8565V4.21951H46.3443ZM44.8809 4.21951V4.70732H44.3931V4.21951H44.8809ZM45.3687 4.21951V4.70732H44.8809V4.21951H45.3687ZM45.3687 4.70732V5.19512H44.8809V4.70732H45.3687ZM47.3199 10.561V11.0488H46.8321V10.561H47.3199ZM47.8077 10.561V11.0488H47.3199V10.561H47.8077ZM48.2955 10.561V11.0488H47.8077V10.561H48.2955ZM48.7833 10.561V11.0488H48.2955V10.561H48.7833ZM49.759 10.0732V10.561H49.2712V10.0732H49.759ZM46.8321 10.0732V10.561H46.3443V10.0732H46.8321ZM50.2468 9.09756V9.58537H49.759V9.09756H50.2468ZM50.7346 9.09756V9.58537H50.2468V9.09756H50.7346ZM51.2224 9.09756V9.58537H50.7346V9.09756H51.2224ZM51.7102 9.09756V9.58537H51.2224V9.09756H51.7102ZM52.198 9.09756V9.58537H51.7102V9.09756H52.198ZM46.8321 3.2439V3.73171H46.3443V3.2439H46.8321ZM47.3199 2.7561V3.2439H46.8321V2.7561H47.3199ZM47.8077 2.7561V3.2439H47.3199V2.7561H47.8077ZM48.2955 2.7561V3.2439H47.8077V2.7561H48.2955ZM48.7833 2.7561V3.2439H48.2955V2.7561H48.7833ZM49.759 3.2439V3.73171H49.2712V3.2439H49.759ZM50.2468 4.21951V4.70732H49.759V4.21951H50.2468ZM50.7346 4.21951V4.70732H50.2468V4.21951H50.7346ZM51.2224 4.21951V4.70732H50.7346V4.21951H51.2224ZM51.7102 4.21951V4.70732H51.2224V4.21951H51.7102ZM52.198 4.21951V4.70732H51.7102V4.21951H52.198ZM49.2712 0.804878V1.29268H48.7833V0.804878H49.2712ZM49.2712 1.29268V1.78049H48.7833V1.29268H49.2712ZM49.2712 1.78049V2.26829H48.7833V1.78049H49.2712ZM49.2712 2.26829V2.7561H48.7833V2.26829H49.2712ZM49.2712 2.7561V3.2439H48.7833V2.7561H49.2712ZM49.2712 10.561V11.0488H48.7833V10.561H49.2712ZM49.2712 11.0488V11.5366H48.7833V11.0488H49.2712ZM49.2712 11.5366V12.0244H48.7833V11.5366H49.2712ZM49.2712 12.0244V12.5122H48.7833V12.0244H49.2712ZM49.2712 12.5122V13H48.7833V12.5122H49.2712ZM54.6275 10.561V11.0488H54.1397V10.561H54.6275ZM54.6275 10.0732V10.561H54.1397V10.0732H54.6275ZM54.6275 9.58537V10.0732H54.1397V9.58537H54.6275ZM54.6275 9.09756V9.58537H54.1397V9.09756H54.6275ZM54.6275 8.60976V9.09756H54.1397V8.60976H54.6275ZM54.6275 8.12195V8.60976H54.1397V8.12195H54.6275ZM54.6275 7.63415V8.12195H54.1397V7.63415H54.6275ZM54.6275 7.14634V7.63415H54.1397V7.14634H54.6275ZM54.6275 6.65854V7.14634H54.1397V6.65854H54.6275ZM54.6275 6.17073V6.65854H54.1397V6.17073H54.6275ZM54.6275 5.68293V6.17073H54.1397V5.68293H54.6275ZM55.1153 5.68293V6.17073H54.6275V5.68293H55.1153ZM55.1153 6.17073V6.65854H54.6275V6.17073H55.1153ZM55.1153 6.65854V7.14634H54.6275V6.65854H55.1153ZM55.1153 7.14634V7.63415H54.6275V7.14634H55.1153ZM55.1153 7.63415V8.12195H54.6275V7.63415H55.1153ZM55.1153 8.12195V8.60976H54.6275V8.12195H55.1153ZM55.1153 8.60976V9.09756H54.6275V8.60976H55.1153ZM55.6031 9.09756V9.58537H55.1153V9.09756H55.6031ZM55.6031 9.58537V10.0732H55.1153V9.58537H55.6031ZM55.6031 10.0732V10.561H55.1153V10.0732H55.6031ZM55.6031 10.561V11.0488H55.1153V10.561H55.6031ZM55.6031 11.0488V11.5366H55.1153V11.0488H55.6031ZM55.6031 11.5366V12.0244H55.1153V11.5366H55.6031ZM55.6031 12.0244V12.5122H55.1153V12.0244H55.6031ZM56.5787 12.5122V13H56.0909V12.5122H56.5787ZM56.5787 12.0244V12.5122H56.0909V12.0244H56.5787ZM56.5787 11.5366V12.0244H56.0909V11.5366H56.5787ZM56.5787 11.0488V11.5366H56.0909V11.0488H56.5787ZM56.5787 10.561V11.0488H56.0909V10.561H56.5787ZM56.5787 10.0732V10.561H56.0909V10.0732H56.5787ZM56.5787 9.58537V10.0732H56.0909V9.58537H56.5787ZM56.5787 9.09756V9.58537H56.0909V9.09756H56.5787ZM56.0909 9.09756V9.58537H55.6031V9.09756H56.0909ZM56.0909 8.60976V9.09756H55.6031V8.60976H56.0909ZM56.0909 9.58537V10.0732H55.6031V9.58537H56.0909ZM56.0909 10.0732V10.561H55.6031V10.0732H56.0909ZM56.0909 10.561V11.0488H55.6031V10.561H56.0909ZM56.0909 11.0488V11.5366H55.6031V11.0488H56.0909ZM56.0909 11.5366V12.0244H55.6031V11.5366H56.0909ZM56.0909 12.0244V12.5122H55.6031V12.0244H56.0909ZM55.1153 11.5366V12.0244H54.6275V11.5366H55.1153ZM55.1153 11.0488V11.5366H54.6275V11.0488H55.1153ZM55.1153 10.561V11.0488H54.6275V10.561H55.1153ZM55.1153 10.0732V10.561H54.6275V10.0732H55.1153ZM55.1153 9.58537V10.0732H54.6275V9.58537H55.1153ZM55.1153 9.09756V9.58537H54.6275V9.09756H55.1153ZM54.6275 5.19512V5.68293H54.1397V5.19512H54.6275ZM56.0909 5.19512V5.68293H55.6031V5.19512H56.0909ZM56.0909 5.68293V6.17073H55.6031V5.68293H56.0909ZM56.0909 6.17073V6.65854H55.6031V6.17073H56.0909ZM56.0909 6.65854V7.14634H55.6031V6.65854H56.0909ZM56.0909 7.14634V7.63415H55.6031V7.14634H56.0909ZM56.5787 7.63415V8.12195H56.0909V7.63415H56.5787ZM56.5787 8.12195V8.60976H56.0909V8.12195H56.5787ZM56.5787 8.60976V9.09756H56.0909V8.60976H56.5787ZM56.5787 7.14634V7.63415H56.0909V7.14634H56.5787ZM56.5787 6.65854V7.14634H56.0909V6.65854H56.5787ZM56.5787 6.17073V6.65854H56.0909V6.17073H56.5787ZM56.5787 5.68293V6.17073H56.0909V5.68293H56.5787ZM56.5787 5.19512V5.68293H56.0909V5.19512H56.5787ZM55.1153 5.19512V5.68293H54.6275V5.19512H55.1153ZM55.6031 5.19512V5.68293H55.1153V5.19512H55.6031ZM55.6031 5.68293V6.17073H55.1153V5.68293H55.6031ZM55.6031 6.17073V6.65854H55.1153V6.17073H55.6031ZM55.6031 6.65854V7.14634H55.1153V6.65854H55.6031ZM55.6031 7.14634V7.63415H55.1153V7.14634H55.6031ZM55.6031 7.63415V8.12195H55.1153V7.63415H55.6031ZM55.6031 8.12195V8.60976H55.1153V8.12195H55.6031ZM55.6031 8.60976V9.09756H55.1153V8.60976H55.6031ZM56.0909 8.12195V8.60976H55.6031V8.12195H56.0909ZM56.0909 7.63415V8.12195H55.6031V7.63415H56.0909ZM60.4811 12.5122V13H59.9933V12.5122H60.4811ZM60.4811 12.0244V12.5122H59.9933V12.0244H60.4811ZM60.4811 11.5366V12.0244H59.9933V11.5366H60.4811ZM60.4811 11.0488V11.5366H59.9933V11.0488H60.4811ZM60.4811 10.561V11.0488H59.9933V10.561H60.4811ZM60.4811 10.0732V10.561H59.9933V10.0732H60.4811ZM60.4811 9.58537V10.0732H59.9933V9.58537H60.4811ZM60.4811 9.09756V9.58537H59.9933V9.09756H60.4811ZM60.4811 8.60976V9.09756H59.9933V8.60976H60.4811ZM60.4811 8.12195V8.60976H59.9933V8.12195H60.4811ZM60.4811 7.63415V8.12195H59.9933V7.63415H60.4811ZM60.4811 7.14634V7.63415H59.9933V7.14634H60.4811ZM60.4811 6.65854V7.14634H59.9933V6.65854H60.4811ZM60.4811 6.17073V6.65854H59.9933V6.17073H60.4811ZM60.4811 5.68293V6.17073H59.9933V5.68293H60.4811ZM60.9689 5.68293V6.17073H60.4811V5.68293H60.9689ZM60.9689 6.17073V6.65854H60.4811V6.17073H60.9689ZM60.9689 6.65854V7.14634H60.4811V6.65854H60.9689ZM60.9689 7.14634V7.63415H60.4811V7.14634H60.9689ZM60.9689 7.63415V8.12195H60.4811V7.63415H60.9689ZM60.9689 8.12195V8.60976H60.4811V8.12195H60.9689ZM60.9689 8.60976V9.09756H60.4811V8.60976H60.9689ZM61.4567 9.09756V9.58537H60.9689V9.09756H61.4567ZM61.4567 9.58537V10.0732H60.9689V9.58537H61.4567ZM61.4567 10.0732V10.561H60.9689V10.0732H61.4567ZM61.4567 10.561V11.0488H60.9689V10.561H61.4567ZM61.4567 11.0488V11.5366H60.9689V11.0488H61.4567ZM61.4567 11.5366V12.0244H60.9689V11.5366H61.4567ZM61.4567 12.0244V12.5122H60.9689V12.0244H61.4567ZM62.4324 10.561V11.0488H61.9446V10.561H62.4324ZM62.4324 10.0732V10.561H61.9446V10.0732H62.4324ZM62.4324 9.58537V10.0732H61.9446V9.58537H62.4324ZM62.4324 9.09756V9.58537H61.9446V9.09756H62.4324ZM61.9446 9.09756V9.58537H61.4567V9.09756H61.9446ZM61.9446 8.60976V9.09756H61.4567V8.60976H61.9446ZM61.9446 9.58537V10.0732H61.4567V9.58537H61.9446ZM61.9446 10.0732V10.561H61.4567V10.0732H61.9446ZM61.9446 10.561V11.0488H61.4567V10.561H61.9446ZM61.9446 11.0488V11.5366H61.4567V11.0488H61.9446ZM61.9446 11.5366V12.0244H61.4567V11.5366H61.9446ZM60.9689 12.0244V12.5122H60.4811V12.0244H60.9689ZM60.9689 11.5366V12.0244H60.4811V11.5366H60.9689ZM60.9689 11.0488V11.5366H60.4811V11.0488H60.9689ZM60.9689 10.561V11.0488H60.4811V10.561H60.9689ZM60.9689 10.0732V10.561H60.4811V10.0732H60.9689ZM60.9689 9.58537V10.0732H60.4811V9.58537H60.9689ZM60.9689 9.09756V9.58537H60.4811V9.09756H60.9689ZM60.4811 5.19512V5.68293H59.9933V5.19512H60.4811ZM61.9446 5.19512V5.68293H61.4567V5.19512H61.9446ZM61.9446 5.68293V6.17073H61.4567V5.68293H61.9446ZM61.9446 6.17073V6.65854H61.4567V6.17073H61.9446ZM61.9446 6.65854V7.14634H61.4567V6.65854H61.9446ZM61.9446 7.14634V7.63415H61.4567V7.14634H61.9446ZM62.4324 7.63415V8.12195H61.9446V7.63415H62.4324ZM62.4324 8.12195V8.60976H61.9446V8.12195H62.4324ZM62.4324 8.60976V9.09756H61.9446V8.60976H62.4324ZM62.4324 7.14634V7.63415H61.9446V7.14634H62.4324ZM62.4324 6.65854V7.14634H61.9446V6.65854H62.4324ZM62.4324 6.17073V6.65854H61.9446V6.17073H62.4324ZM62.4324 5.68293V6.17073H61.9446V5.68293H62.4324ZM62.4324 5.19512V5.68293H61.9446V5.19512H62.4324ZM60.9689 5.19512V5.68293H60.4811V5.19512H60.9689ZM61.4567 5.19512V5.68293H60.9689V5.19512H61.4567ZM61.4567 5.68293V6.17073H60.9689V5.68293H61.4567ZM61.4567 6.17073V6.65854H60.9689V6.17073H61.4567ZM61.4567 6.65854V7.14634H60.9689V6.65854H61.4567ZM61.4567 7.14634V7.63415H60.9689V7.14634H61.4567ZM61.4567 7.63415V8.12195H60.9689V7.63415H61.4567ZM61.4567 8.12195V8.60976H60.9689V8.12195H61.4567ZM61.4567 8.60976V9.09756H60.9689V8.60976H61.4567ZM61.9446 8.12195V8.60976H61.4567V8.12195H61.9446ZM61.9446 7.63415V8.12195H61.4567V7.63415H61.9446ZM57.0665 12.5122V13H56.5787V12.5122H57.0665ZM57.5543 12.5122V13H57.0665V12.5122H57.5543ZM58.5299 12.5122V13H58.0421V12.5122H58.5299ZM59.0177 12.5122V13H58.5299V12.5122H59.0177ZM59.5055 12.5122V13H59.0177V12.5122H59.5055ZM59.9933 12.5122V13H59.5055V12.5122H59.9933ZM59.9933 12.0244V12.5122H59.5055V12.0244H59.9933ZM59.5055 12.0244V12.5122H59.0177V12.0244H59.5055ZM59.0177 12.0244V12.5122H58.5299V12.0244H59.0177ZM58.5299 12.0244V12.5122H58.0421V12.0244H58.5299ZM57.5543 12.0244V12.5122H57.0665V12.0244H57.5543ZM57.0665 12.0244V12.5122H56.5787V12.0244H57.0665ZM57.0665 11.5366V12.0244H56.5787V11.5366H57.0665ZM57.5543 11.5366V12.0244H57.0665V11.5366H57.5543ZM58.5299 11.5366V12.0244H58.0421V11.5366H58.5299ZM59.0177 11.5366V12.0244H58.5299V11.5366H59.0177ZM59.5055 11.5366V12.0244H59.0177V11.5366H59.5055ZM59.9933 11.5366V12.0244H59.5055V11.5366H59.9933ZM59.9933 11.0488V11.5366H59.5055V11.0488H59.9933ZM59.5055 11.0488V11.5366H59.0177V11.0488H59.5055ZM59.0177 11.0488V11.5366H58.5299V11.0488H59.0177ZM58.5299 11.0488V11.5366H58.0421V11.0488H58.5299ZM57.5543 11.0488V11.5366H57.0665V11.0488H57.5543ZM57.0665 11.0488V11.5366H56.5787V11.0488H57.0665ZM57.0665 10.561V11.0488H56.5787V10.561H57.0665ZM59.9933 10.561V11.0488H59.5055V10.561H59.9933ZM61.9446 3.2439V2.7561H62.4324V3.2439H61.9446ZM61.9446 3.73171V3.2439H62.4324V3.73171H61.9446ZM61.9446 4.21951V3.73171H62.4324V4.21951H61.9446ZM60.9689 4.21951V3.73171H61.4567V4.21951H60.9689ZM60.9689 3.73171V3.2439H61.4567V3.73171H60.9689ZM60.9689 3.2439V2.7561H61.4567V3.2439H60.9689ZM60.9689 2.7561V2.26829H61.4567V2.7561H60.9689ZM60.9689 2.26829V1.78049H61.4567V2.26829H60.9689ZM60.9689 1.78049V1.29268H61.4567V1.78049H60.9689ZM59.9933 1.29268V0.804878H60.4811V1.29268H59.9933ZM59.9933 1.78049V1.29268H60.4811V1.78049H59.9933ZM59.9933 2.26829V1.78049H60.4811V2.26829H59.9933ZM59.9933 2.7561V2.26829H60.4811V2.7561H59.9933ZM59.9933 3.2439V2.7561H60.4811V3.2439H59.9933ZM59.9933 3.73171V3.2439H60.4811V3.73171H59.9933ZM59.9933 4.21951V3.73171H60.4811V4.21951H59.9933ZM60.4811 4.21951V3.73171H60.9689V4.21951H60.4811ZM60.4811 3.73171V3.2439H60.9689V3.73171H60.4811ZM60.4811 3.2439V2.7561H60.9689V3.2439H60.4811ZM60.4811 2.7561V2.26829H60.9689V2.7561H60.4811ZM60.4811 2.26829V1.78049H60.9689V2.26829H60.4811ZM60.4811 1.78049V1.29268H60.9689V1.78049H60.4811ZM61.4567 2.26829V1.78049H61.9446V2.26829H61.4567ZM61.4567 2.7561V2.26829H61.9446V2.7561H61.4567ZM61.4567 3.2439V2.7561H61.9446V3.2439H61.4567ZM61.4567 3.73171V3.2439H61.9446V3.73171H61.4567ZM61.4567 4.21951V3.73171H61.9446V4.21951H61.4567ZM56.0909 1.29268V0.804878H56.5787V1.29268H56.0909ZM56.0909 1.78049V1.29268H56.5787V1.78049H56.0909ZM56.0909 2.26829V1.78049H56.5787V2.26829H56.0909ZM56.0909 2.7561V2.26829H56.5787V2.7561H56.0909ZM56.0909 3.2439V2.7561H56.5787V3.2439H56.0909ZM56.0909 3.73171V3.2439H56.5787V3.73171H56.0909ZM56.0909 4.21951V3.73171H56.5787V4.21951H56.0909ZM55.1153 4.21951V3.73171H55.6031V4.21951H55.1153ZM55.1153 3.73171V3.2439H55.6031V3.73171H55.1153ZM55.1153 3.2439V2.7561H55.6031V3.2439H55.1153ZM55.1153 2.7561V2.26829H55.6031V2.7561H55.1153ZM55.1153 2.26829V1.78049H55.6031V2.26829H55.1153ZM55.1153 1.78049V1.29268H55.6031V1.78049H55.1153ZM54.1397 3.2439V2.7561H54.6275V3.2439H54.1397ZM54.1397 3.73171V3.2439H54.6275V3.73171H54.1397ZM54.1397 4.21951V3.73171H54.6275V4.21951H54.1397ZM54.6275 4.21951V3.73171H55.1153V4.21951H54.6275ZM54.6275 3.73171V3.2439H55.1153V3.73171H54.6275ZM54.6275 3.2439V2.7561H55.1153V3.2439H54.6275ZM54.6275 2.7561V2.26829H55.1153V2.7561H54.6275ZM54.6275 2.26829V1.78049H55.1153V2.26829H54.6275ZM55.6031 1.78049V1.29268H56.0909V1.78049H55.6031ZM55.6031 2.26829V1.78049H56.0909V2.26829H55.6031ZM55.6031 2.7561V2.26829H56.0909V2.7561H55.6031ZM55.6031 3.2439V2.7561H56.0909V3.2439H55.6031ZM55.6031 3.73171V3.2439H56.0909V3.73171H55.6031ZM55.6031 4.21951V3.73171H56.0909V4.21951H55.6031ZM54.6275 4.70732V5.19512H54.1397V4.70732H54.6275ZM55.1153 4.70732V5.19512H54.6275V4.70732H55.1153ZM54.6275 4.21951V4.70732H54.1397V4.21951H54.6275ZM56.0909 4.21951V4.70732H55.6031V4.21951H56.0909ZM56.0909 4.70732V5.19512H55.6031V4.70732H56.0909ZM56.5787 4.70732V5.19512H56.0909V4.70732H56.5787ZM56.5787 4.21951V4.70732H56.0909V4.21951H56.5787ZM55.1153 4.21951V4.70732H54.6275V4.21951H55.1153ZM55.6031 4.21951V4.70732H55.1153V4.21951H55.6031ZM55.6031 4.70732V5.19512H55.1153V4.70732H55.6031ZM60.4811 4.70732V5.19512H59.9933V4.70732H60.4811ZM60.9689 4.70732V5.19512H60.4811V4.70732H60.9689ZM60.4811 4.21951V4.70732H59.9933V4.21951H60.4811ZM61.9446 4.21951V4.70732H61.4567V4.21951H61.9446ZM61.9446 4.70732V5.19512H61.4567V4.70732H61.9446ZM62.4324 4.70732V5.19512H61.9446V4.70732H62.4324ZM62.4324 4.21951V4.70732H61.9446V4.21951H62.4324ZM60.9689 4.21951V4.70732H60.4811V4.21951H60.9689ZM61.4567 4.21951V4.70732H60.9689V4.21951H61.4567ZM61.4567 4.70732V5.19512H60.9689V4.70732H61.4567ZM57.5543 10.561V11.0488H57.0665V10.561H57.5543ZM58.5299 10.561V11.0488H58.0421V10.561H58.5299ZM59.0177 10.561V11.0488H58.5299V10.561H59.0177ZM59.5055 10.561V11.0488H59.0177V10.561H59.5055ZM59.9933 10.0732V10.561H59.5055V10.0732H59.9933ZM57.0665 10.0732V10.561H56.5787V10.0732H57.0665ZM54.6275 2.26829V2.7561H54.1397V2.26829H54.6275ZM54.6275 1.78049V2.26829H54.1397V1.78049H54.6275ZM54.6275 1.29268V1.78049H54.1397V1.29268H54.6275ZM54.6275 0.804878V1.29268H54.1397V0.804878H54.6275ZM55.1153 0.804878V1.29268H54.6275V0.804878H55.1153ZM55.6031 0.804878V1.29268H55.1153V0.804878H55.6031ZM56.0909 0.804878V1.29268H55.6031V0.804878H56.0909ZM55.1153 1.29268V1.78049H54.6275V1.29268H55.1153ZM60.9689 0.804878V1.29268H60.4811V0.804878H60.9689ZM61.4567 0.804878V1.29268H60.9689V0.804878H61.4567ZM61.9446 0.804878V1.29268H61.4567V0.804878H61.9446ZM62.4324 0.804878V1.29268H61.9446V0.804878H62.4324ZM62.4324 1.29268V1.78049H61.9446V1.29268H62.4324ZM62.4324 1.78049V2.26829H61.9446V1.78049H62.4324ZM62.4324 2.26829V2.7561H61.9446V2.26829H62.4324ZM61.9446 1.29268V1.78049H61.4567V1.29268H61.9446ZM58.0421 10.561V11.0488H57.5543V10.561H58.0421ZM58.0421 11.0488V11.5366H57.5543V11.0488H58.0421ZM58.0421 11.5366V12.0244H57.5543V11.5366H58.0421ZM58.0421 12.0244V12.5122H57.5543V12.0244H58.0421ZM58.0421 12.5122V13H57.5543V12.5122H58.0421Z" fill="black"/>
</svg>
